<?xml version="1.0" encoding="utf-8"?>
<!-- Generator: Adobe Illustrator 25.2.3, SVG Export Plug-In . SVG Version: 6.00 Build 0)  -->
<svg version="1.1" id="logo" xmlns="http://www.w3.org/2000/svg" xmlns:xlink="http://www.w3.org/1999/xlink" x="0px" y="0px" viewBox="0 0 292 289" style="enable-background:new 0 0 292 289;" xml:space="preserve">
	<style type="text/css">
	.st0{fill:#4B87C7;}
</style>
	<g>
		<path class="st0" d="M148.5,9.4c-46.6,0-87.7,23.4-112.2,59.1h14.7c22.8-28.8,58-47.3,97.6-47.3c68.7,0,124.3,55.7,124.3,124.3
		s-55.7,124.3-124.3,124.3S24.2,214.2,24.2,145.5c0-5.9,0.4-11.7,1.2-17.4H13.5c-0.7,5.7-1.1,11.5-1.1,17.4
		c0,75.2,60.9,136.1,136.1,136.1c75.2,0,136.1-60.9,136.1-136.1S223.6,9.4,148.5,9.4z" />
		<circle class="st0" cx="44.4" cy="69" r="15.1" />
		<circle class="st0" cx="19.6" cy="128.3" r="15.1" />
	</g>
	<g>
		<path class="st0" d="M92.6,115.1h21.2c3.6,0,7,0.5,10.3,1.6c3.3,1.1,6.2,2.7,8.7,5c2.5,2.2,4.6,5,6.1,8.4c1.5,3.4,2.3,7.3,2.3,11.9
		c0,4.6-0.9,8.6-2.6,11.9c-1.8,3.4-4,6.2-6.8,8.4c-2.8,2.2-5.8,3.8-9.2,4.9c-3.4,1.1-6.7,1.6-9.9,1.6H92.6V115.1z M109.4,160.3
		c3,0,5.8-0.3,8.4-1c2.7-0.7,5-1.8,7-3.2c2-1.5,3.5-3.3,4.7-5.6s1.7-5.1,1.7-8.4c0-3.3-0.5-6-1.5-8.4c-1-2.3-2.4-4.2-4.2-5.7
		c-1.8-1.4-3.9-2.5-6.4-3.2s-5.1-1-8.1-1h-8.7v36.5H109.4z" />
		<path class="st0" d="M41.8,115.1h18.7c2.6,0,5.1,0.2,7.5,0.7s4.6,1.3,6.4,2.5c1.9,1.2,3.3,2.7,4.5,4.7c1.1,2,1.7,4.5,1.7,7.5
		c0,4-1.1,7.2-3.2,9.8c-2.1,2.6-5.2,4.2-9.2,4.7l14.3,23.8H70.8l-12.5-22.8h-7v22.8h-9.6V115.1z M58.8,137.9c1.4,0,2.7-0.1,4.1-0.2
		c1.4-0.1,2.6-0.4,3.8-0.9c1.1-0.5,2.1-1.2,2.8-2.2c0.7-1,1.1-2.4,1.1-4.1c0-1.6-0.3-2.8-1-3.8c-0.7-1-1.5-1.7-2.6-2.2
		c-1.1-0.5-2.2-0.8-3.5-1c-1.3-0.1-2.6-0.2-3.8-0.2h-8.3v14.6H58.8z" />
		<path class="st0" d="M151.5,115.1H166l14.4,37.7l14.5-37.7h14.4v53.8h-9.1v-44.6h-0.2l-16.3,44.6h-6.7l-16.3-44.6h-0.2v44.6h-9.1
		V115.1z" />
		<path class="st0" d="M247.9,126.6c-1-1.4-2.4-2.5-4.1-3.2c-1.7-0.7-3.5-1-5.4-1c-1.1,0-2.2,0.1-3.2,0.4c-1,0.3-2,0.7-2.8,1.2
		c-0.8,0.6-1.5,1.3-2,2.2c-0.5,0.9-0.7,1.9-0.7,3.2c0,1.8,0.6,3.2,1.9,4.2c1.3,1,2.8,1.8,4.7,2.5c1.9,0.7,3.9,1.4,6.1,2.1
		c2.2,0.7,4.3,1.6,6.2,2.7c1.9,1.2,3.4,2.7,4.7,4.6c1.3,1.9,1.9,4.5,1.9,7.7c0,2.9-0.5,5.4-1.6,7.5c-1.1,2.2-2.5,3.9-4.3,5.4
		c-1.8,1.4-3.9,2.5-6.3,3.2c-2.4,0.7-4.9,1.1-7.5,1.1c-3.3,0-6.5-0.6-9.6-1.7c-3.1-1.1-5.7-3-8-5.7l7.2-7c1.1,1.8,2.7,3.2,4.6,4.2
		c1.9,1,3.9,1.5,6,1.5c1.1,0,2.2-0.1,3.3-0.4c1.1-0.3,2.1-0.8,3.1-1.4c0.9-0.6,1.7-1.4,2.2-2.3c0.6-0.9,0.8-2,0.8-3.2
		c0-2-0.6-3.5-1.9-4.6c-1.3-1.1-2.8-2-4.7-2.7c-1.9-0.7-3.9-1.4-6.2-2.1c-2.2-0.7-4.3-1.5-6.1-2.7c-1.9-1.1-3.4-2.7-4.7-4.6
		c-1.3-1.9-1.9-4.4-1.9-7.7c0-2.8,0.6-5.2,1.7-7.2s2.6-3.7,4.5-5c1.8-1.3,4-2.3,6.3-3c2.4-0.7,4.8-1,7.3-1c2.9,0,5.6,0.4,8.3,1.3
		c2.6,0.9,5,2.3,7.1,4.3L247.9,126.6z" />
	</g>
</svg>
