<?xml version="1.0" encoding="utf-8"?>
<!-- Generator: Adobe Illustrator 23.0.2, SVG Export Plug-In . SVG Version: 6.00 Build 0)  -->
<svg version="1.1" id="Layer_1" xmlns="http://www.w3.org/2000/svg" xmlns:xlink="http://www.w3.org/1999/xlink" x="0px" y="0px"
	 viewBox="0 0 650 575" style="enable-background:new 0 0 650 575;" xml:space="preserve">
<style type="text/css">
	.st0{opacity:0.2;fill:#4787C7;}
	.st1{opacity:0.1;fill:#87B9D8;}
	.st2{opacity:0.2;fill-rule:evenodd;clip-rule:evenodd;fill:#87B9D8;}
	.st3{opacity:0.141;fill-rule:evenodd;clip-rule:evenodd;fill:#CEF5FF;enable-background:new    ;}
	.st4{opacity:0.1;filter:url(#filter-2);}
	.st5{fill-rule:evenodd;clip-rule:evenodd;fill:#4787C7;}
	.st6{fill:#87B9D8;}
	.st7{fill:#4787C7;}
</style>
<filter  filterUnits="objectBoundingBox" height="126.0%" id="filter-2" width="125.9%" x="-12.9%" y="-13.0%">
	<feGaussianBlur  in="SourceGraphic" stdDeviation="3"></feGaussianBlur>
</filter>
<title>Illustration</title>
<g id="Shape">
	<path id="Oval" class="st0" d="M507.5,14c74.4,0,134.8,60.1,134.8,134.2s-60.3,134.2-134.8,134.2s-134.8-60.1-134.8-134.2
		S433.1,14,507.5,14z M507.5,64.2c-46.6,0-84.4,37.6-84.4,84.1s37.8,84.1,84.4,84.1c46.6,0,84.4-37.6,84.4-84.1
		S554.1,64.2,507.5,64.2z"/>
	<path class="st1" d="M59.8,252.8c26.6,0,48.2,21.5,48.2,48s-21.6,48-48.2,48s-48.2-21.5-48.2-48S33.2,252.8,59.8,252.8z
		 M59.8,284.4c-9.1,0-16.4,7.3-16.4,16.3s7.3,16.3,16.4,16.3s16.4-7.3,16.4-16.3S68.8,284.4,59.8,284.4z"/>
	<ellipse class="st2" cx="208.5" cy="454.2" rx="95.3" ry="94.9"/>
	<ellipse class="st3" cx="176.8" cy="122" rx="33.9" ry="33.8"/>
	<g class="st4">
		<ellipse class="st5" cx="575.9" cy="454.2" rx="33.9" ry="33.8"/>
	</g>
</g>
<g>
	<path class="st6" d="M348.1,124.3c-56.8,0-106.9,28.5-136.8,72.1h17.9c27.7-35.1,70.7-57.7,118.9-57.7
		c83.7,0,151.5,67.8,151.5,151.5s-67.8,151.5-151.5,151.5s-151.5-67.8-151.5-151.5c0-7.2,0.5-14.2,1.5-21.2h-14.5
		c-0.9,6.9-1.4,14-1.4,21.2c0,91.6,74.3,165.9,165.9,165.9c91.6,0,165.9-74.3,165.9-165.9S439.7,124.3,348.1,124.3z"/>
	<circle class="st7" cx="221.3" cy="196.9" r="18.4"/>
	<circle class="st7" cx="191" cy="269.1" r="18.4"/>
</g>
<g>
	<path class="st7" d="M343.6,396.5c-16.7,0-33.5,0-50.2,0c-14.3,0-23.6-8.9-23.7-23.3c-0.1-29.5-0.1-59,0-88.5
		c0.1-14.3,9.4-23.3,23.6-23.4c33.2,0,66.5,0,99.7,0c15,0,23.9,8.8,23.9,23.7c0,29.4,0,59.5,0,88.9c0,14.5-8.9,22.5-23.4,22.5
		C376.8,396.5,360.2,396.5,343.6,396.5z M335.3,345.7c0,5,0.1,10,0,15.1c-0.1,2.7,0.7,4.1,3.7,3.9c3.2-0.2,6.4-0.2,9.7,0
		c2.9,0.2,3.8-0.9,3.7-3.8c-0.2-9.1,0.1-18.3-0.1-27.4c-0.1-3.3,0.6-5.5,3.5-7.8c8-6.3,8.8-18.3,2.3-25.9c-6.8-7.8-18.2-8.7-26-2.1
		c-7.7,6.5-9.2,19-1.9,25.8c4.7,4.4,5.6,8.9,5.2,14.5C335.1,340.5,335.3,343.1,335.3,345.7z"/>
	<path class="st6" d="M393.2,241c0,4.2-0.1,8.5,0,12.7c0.1,2.4-0.9,3.1-3.2,3.2c-8.6,0.4-8.5,0.4-8.6-8.1c-0.1-6.7,0.2-13.4-0.6-20
		c-2.2-19.9-19.5-33.9-40-32.7c-18.6,1.1-34.2,17.8-34.4,36.9c-0.1,6.7-0.1,13.4,0,20.1c0.1,2.7-0.5,3.9-3.6,3.9
		c-8.6,0-8.8,0.2-8.6-8.5c0.2-8.6-0.2-17.4,1.5-25.7c4.8-24.1,28.3-41.2,52.3-38.7c25.8,2.7,44.9,23.4,45.1,48.9
		C393.3,235.6,393.2,238.3,393.2,241z"/>
</g>
</svg>
