<?xml version="1.0" encoding="utf-8"?>
<!-- Generator: Adobe Illustrator 23.0.2, SVG Export Plug-In . SVG Version: 6.00 Build 0)  -->
<svg version="1.1" id="Layer_1" xmlns="http://www.w3.org/2000/svg" xmlns:xlink="http://www.w3.org/1999/xlink" x="0px" y="0px"
	 viewBox="0 0 747 547" style="enable-background:new 0 0 747 547;" xml:space="preserve">
<style type="text/css">
	.st0{fill:#87B9D8;}
	.st1{fill:#4787C7;}
	.st2{fill:#258BCB;}
	.st3{fill:none;stroke:#87B9D8;stroke-width:3;stroke-miterlimit:10;}
	.st4{fill:#87B9D8;stroke:#4787C7;stroke-width:2;stroke-miterlimit:10;}
	.st5{fill:#FFFFFF;}
	.st6{fill-rule:evenodd;clip-rule:evenodd;fill:#FFFFFF;}
</style>
<title>Illustration</title>
<g>
	<path class="st0" d="M244.4,85.8h4.1c0.8,0,1.6,0,2.4,0.2s1.4,0.3,2.1,0.6c0.6,0.3,1.1,0.8,1.4,1.3c0.3,0.6,0.6,1.4,0.6,2.4
		c0,1.1-0.3,2.1-1.1,2.8c-0.6,0.8-1.7,1.3-3,1.4l4.6,7.4h-2.4l-4.4-7.3h-2.4v7.3h-1.9C244.4,102,244.4,85.8,244.4,85.8z M246.3,92.9
		h1.7c0.5,0,1.1,0,1.6,0c0.6,0,1.1-0.2,1.6-0.3c0.5-0.2,0.9-0.5,1.1-0.8c0.3-0.3,0.5-0.8,0.5-1.6c0-0.6-0.2-1.1-0.3-1.4
		c-0.2-0.3-0.5-0.6-0.9-0.8c-0.3-0.2-0.8-0.3-1.3-0.3s-0.9-0.2-1.4-0.2h-2.7L246.3,92.9L246.3,92.9z"/>
	<path class="st0" d="M268,99.9c-0.6,0.8-1.3,1.4-2.1,1.7c-0.8,0.3-1.6,0.5-2.7,0.5c-0.8,0-1.6-0.2-2.2-0.5s-1.3-0.6-1.7-1.3
		c-0.5-0.5-0.8-1.1-1.1-1.7s-0.3-1.4-0.3-2.2c0-0.8,0.2-1.6,0.5-2.2s0.6-1.3,1.1-1.7c0.5-0.5,1.1-0.9,1.7-1.1
		c0.6-0.3,1.4-0.5,2.2-0.5s1.4,0.2,2.1,0.3c0.6,0.3,1.1,0.6,1.6,1.1s0.8,1.1,1.1,1.7s0.3,1.4,0.3,2.4V97H260c0,0.5,0.2,0.9,0.3,1.3
		c0.2,0.5,0.5,0.8,0.8,1.1c0.3,0.3,0.6,0.6,1.1,0.8c0.5,0.2,0.8,0.3,1.3,0.3c0.8,0,1.4-0.2,1.9-0.5s0.9-0.6,1.4-1.3L268,99.9z
		 M266.4,95.6c0-0.9-0.3-1.6-0.8-2.2c-0.5-0.5-1.3-0.8-2.4-0.8c-0.9,0-1.7,0.3-2.4,0.8c-0.6,0.5-0.9,1.3-1.1,2.2H266.4z"/>
	<path class="st0" d="M272.4,92.8H270v-1.4h2.4V89c0-0.6,0-1.3,0.2-1.7c0.2-0.5,0.3-0.9,0.6-1.4c0.3-0.3,0.6-0.6,1.1-0.9
		c0.5-0.2,1.1-0.3,1.7-0.3c0.2,0,0.5,0,0.8,0s0.5,0.2,0.6,0.2l-0.3,1.6c-0.5-0.2-0.8-0.2-1.3-0.2s-0.8,0.2-1.1,0.3s-0.5,0.3-0.6,0.6
		c-0.2,0.3-0.2,0.6-0.2,0.9s0,0.8,0,1.3v2.1h2.5v1.4H274v9.2h-1.7L272.4,92.8L272.4,92.8z"/>
	<path class="st0" d="M288.4,99.9c-0.6,0.8-1.3,1.4-2.1,1.7c-0.8,0.3-1.6,0.5-2.7,0.5c-0.8,0-1.6-0.2-2.2-0.5s-1.3-0.6-1.7-1.3
		c-0.5-0.5-0.8-1.1-1.1-1.7s-0.3-1.4-0.3-2.2c0-0.8,0.2-1.6,0.5-2.2s0.6-1.3,1.1-1.7c0.5-0.5,1.1-0.9,1.7-1.1
		c0.6-0.3,1.4-0.5,2.2-0.5s1.4,0.2,2.1,0.3c0.6,0.3,1.1,0.6,1.6,1.1s0.8,1.1,1.1,1.7s0.3,1.4,0.3,2.4V97h-8.5c0,0.5,0.2,0.9,0.3,1.3
		c0.2,0.5,0.5,0.8,0.8,1.1c0.3,0.3,0.6,0.6,1.1,0.8c0.5,0.2,0.8,0.3,1.3,0.3c0.8,0,1.4-0.2,1.9-0.5s0.9-0.6,1.4-1.3L288.4,99.9z
		 M286.8,95.6c0-0.9-0.3-1.6-0.8-2.2c-0.5-0.5-1.3-0.8-2.4-0.8c-0.9,0-1.7,0.3-2.4,0.8s-0.9,1.3-1.1,2.2H286.8z"/>
	<path class="st0" d="M292,93.7c0-0.5,0-0.9,0-1.4s0-0.8,0-1.1h1.7c0,0.3,0,0.6,0,0.8c0,0.3,0,0.6,0,0.9l0,0
		c0.2-0.3,0.3-0.5,0.5-0.8s0.5-0.5,0.8-0.6c0.3-0.2,0.6-0.3,0.9-0.5s0.8-0.2,1.3-0.2c0.3,0,0.5,0,0.8,0.2l-0.2,1.7
		c-0.3-0.2-0.6-0.2-0.9-0.2c-1.1,0-1.9,0.3-2.4,1.1c-0.5,0.6-0.8,1.7-0.8,2.8v5.2H292V93.7z"/>
	<path class="st0" d="M300.4,93.7c0-0.5,0-0.9,0-1.4s0-0.8,0-1.1h1.7c0,0.3,0,0.6,0,0.8c0,0.3,0,0.6,0,0.9l0,0
		c0.2-0.3,0.3-0.5,0.5-0.8s0.5-0.5,0.8-0.6c0.3-0.2,0.6-0.3,0.9-0.5s0.8-0.2,1.3-0.2c0.3,0,0.5,0,0.8,0.2l-0.2,1.7
		c-0.3-0.2-0.6-0.2-0.9-0.2c-1.1,0-1.9,0.3-2.4,1.1c-0.5,0.6-0.8,1.7-0.8,2.8v5.2h-1.7C300.4,101.8,300.4,93.7,300.4,93.7z"/>
	<path class="st0" d="M308.8,92.6c0.5-0.5,1.3-0.9,1.9-1.3c0.8-0.3,1.6-0.5,2.2-0.5c1.6,0,2.7,0.3,3.5,1.1c0.6,0.8,1.1,1.9,1.1,3.3
		v4.6c0,0.3,0,0.6,0,0.9s0,0.6,0.2,0.9H316c0-0.3-0.2-0.5-0.2-0.8s0-0.6,0-0.8l0,0c-0.3,0.5-0.8,0.9-1.4,1.3
		c-0.6,0.3-1.3,0.5-2.1,0.5c-0.5,0-1.1,0-1.6-0.2s-0.9-0.3-1.3-0.6c-0.3-0.3-0.6-0.6-0.8-0.9s-0.3-0.8-0.3-1.4
		c0-0.9,0.2-1.6,0.6-2.1s0.9-0.8,1.7-1.1c0.6-0.3,1.4-0.5,2.2-0.5s1.4-0.2,2.2-0.2h0.6l0,0c0-0.8-0.2-1.4-0.6-1.7
		c-0.5-0.5-1.1-0.6-1.9-0.6c-0.6,0-1.1,0.2-1.7,0.3c-0.5,0.2-1.1,0.5-1.4,0.9L308.8,92.6z M314,96.7c-1.1,0-2.1,0.2-2.7,0.5
		s-0.9,0.8-0.9,1.6c0,0.6,0.2,1.1,0.6,1.4c0.5,0.3,0.9,0.5,1.7,0.5c0.5,0,0.9-0.2,1.4-0.3c0.3-0.2,0.6-0.5,0.9-0.6
		c0.3-0.3,0.5-0.6,0.6-0.9c0.2-0.3,0.2-0.8,0.2-1.3V97L314,96.7L314,96.7z"/>
	<path class="st0" d="M321.4,84.7h1.7v17.1h-1.7V84.7z"/>
	<path class="st0" d="M331.9,92.6c0.5-0.5,1.3-0.9,1.9-1.3c0.8-0.3,1.6-0.5,2.2-0.5c1.6,0,2.7,0.3,3.5,1.1c0.6,0.8,1.1,1.9,1.1,3.3
		v4.6c0,0.3,0,0.6,0,0.9s0,0.6,0.2,0.9H339c0-0.3-0.2-0.5-0.2-0.8s0-0.6,0-0.8l0,0c-0.3,0.5-0.8,0.9-1.4,1.3
		c-0.6,0.3-1.3,0.5-2.1,0.5c-0.5,0-1.1,0-1.6-0.2s-0.9-0.3-1.3-0.6c-0.3-0.3-0.6-0.6-0.8-0.9c-0.2-0.3-0.3-0.8-0.3-1.4
		c0-0.9,0.2-1.6,0.6-2.1s0.9-0.8,1.7-1.1c0.6-0.3,1.4-0.5,2.2-0.5s1.4-0.2,2.2-0.2h0.6l0,0c0-0.8-0.2-1.4-0.6-1.7
		c-0.5-0.5-1.1-0.6-1.9-0.6c-0.6,0-1.1,0.2-1.7,0.3c-0.5,0.2-1.1,0.5-1.4,0.9L331.9,92.6z M337,96.7c-1.1,0-2.1,0.2-2.7,0.5
		s-0.9,0.8-0.9,1.6c0,0.6,0.2,1.1,0.6,1.4c0.5,0.3,0.9,0.5,1.7,0.5c0.5,0,0.9-0.2,1.4-0.3c0.3-0.2,0.6-0.5,0.9-0.6
		c0.3-0.3,0.5-0.6,0.6-0.9c0.2-0.3,0.2-0.8,0.2-1.3V97L337,96.7L337,96.7z"/>
	<path class="st0" d="M344.1,93.7c0-0.5,0-0.9,0-1.4s0-0.8,0-1.1h1.7c0,0.3,0,0.6,0,0.8c0,0.3,0,0.6,0,0.9l0,0
		c0.2-0.3,0.3-0.5,0.5-0.8s0.5-0.5,0.8-0.6c0.3-0.2,0.6-0.3,0.9-0.5s0.8-0.2,1.3-0.2c0.6,0,1.3,0.2,1.7,0.3s0.9,0.5,1.3,0.9
		c0.3,0.3,0.6,0.8,0.8,1.4c0.2,0.6,0.2,1.1,0.2,1.7v6.5h-1.7v-6.3c0-0.9-0.2-1.6-0.6-2.1s-0.9-0.8-1.9-0.8c-0.6,0-1.1,0.2-1.4,0.3
		c-0.5,0.2-0.8,0.5-0.9,0.8c-0.3,0.3-0.5,0.8-0.6,1.3c-0.2,0.5-0.2,1.1-0.2,1.6v5.2h-1.7L344.1,93.7L344.1,93.7z"/>
	<path class="st0" d="M365.9,99.9L365.9,99.9c-0.3,0.6-0.9,1.1-1.6,1.6c-0.8,0.5-1.6,0.6-2.5,0.6c-0.8,0-1.4-0.2-2.1-0.5
		c-0.6-0.3-1.3-0.6-1.7-1.1c-0.5-0.5-0.8-1.1-1.1-1.7c-0.3-0.6-0.5-1.4-0.5-2.2c0-0.8,0.2-1.6,0.5-2.2s0.6-1.3,1.1-1.7
		c0.5-0.5,1.1-0.9,1.7-1.1c0.6-0.3,1.4-0.5,2.2-0.5s1.4,0.2,2.1,0.5c0.6,0.3,1.3,0.8,1.7,1.3l0,0v-8.1h1.7v17.1h-1.7V100h0.2V99.9z
		 M365.9,96.6c0-0.6-0.2-1.1-0.3-1.6s-0.5-0.9-0.8-1.3c-0.3-0.3-0.8-0.6-1.1-0.8c-0.5-0.2-0.9-0.3-1.6-0.3c-0.6,0-1.1,0.2-1.6,0.3
		c-0.5,0.2-0.8,0.5-1.1,0.8c-0.3,0.3-0.6,0.8-0.8,1.3c-0.2,0.5-0.3,0.9-0.3,1.6s0.2,1.1,0.3,1.6s0.5,0.9,0.8,1.3
		c0.3,0.3,0.8,0.6,1.1,0.8c0.5,0.2,0.9,0.3,1.6,0.3c0.6,0,1.1-0.2,1.6-0.3c0.5-0.2,0.8-0.5,1.1-0.8c0.3-0.3,0.6-0.8,0.8-1.3
		C365.7,97.7,365.9,97.1,365.9,96.6z"/>
	<path class="st0" d="M376.2,85.8h6.2c0.5,0,1.1,0,1.7,0.2s1.1,0.3,1.7,0.6c0.6,0.3,1.1,0.6,1.7,1.1c0.5,0.5,0.9,0.9,1.4,1.6
		c0.5,0.6,0.8,1.3,0.9,2.1c0.3,0.8,0.3,1.7,0.3,2.7s-0.2,1.9-0.3,2.7c-0.3,0.8-0.6,1.4-0.9,2.1c-0.5,0.6-0.9,1.1-1.4,1.6
		s-1.1,0.8-1.7,1.1c-0.6,0.3-1.1,0.5-1.7,0.6c-0.6,0.2-1.1,0.2-1.7,0.2h-6.2V85.8z M378.1,100.1h3.6c0.9,0,1.7-0.2,2.5-0.3
		c0.8-0.3,1.4-0.6,2.1-1.1s1.1-1.1,1.4-1.9s0.5-1.7,0.5-2.8s-0.2-2.1-0.5-2.8c-0.3-0.8-0.8-1.4-1.4-1.9s-1.3-0.9-2.1-1.1
		c-0.8-0.3-1.6-0.3-2.5-0.3h-3.6V100.1z"/>
	<path class="st0" d="M393.3,87.1c0-0.3,0.2-0.6,0.3-0.9c0.3-0.3,0.6-0.3,0.9-0.3s0.6,0.2,0.9,0.3c0.3,0.3,0.3,0.6,0.3,0.9
		s-0.2,0.6-0.3,0.9c-0.3,0.3-0.5,0.3-0.9,0.3c-0.3,0-0.6-0.2-0.9-0.3C393.4,87.7,393.3,87.4,393.3,87.1z M393.6,91.2h1.7v10.6h-1.7
		V91.2z"/>
	<path class="st0" d="M399.6,99.1c0.3,0.5,0.8,0.8,1.1,1.1c0.5,0.3,0.9,0.3,1.6,0.3c0.3,0,0.5,0,0.8-0.2c0.3,0,0.5-0.2,0.8-0.3
		c0.2-0.2,0.5-0.3,0.5-0.5c0.2-0.2,0.2-0.5,0.2-0.8s0-0.5-0.2-0.6c-0.2-0.2-0.3-0.3-0.5-0.5s-0.5-0.2-0.8-0.3
		c-0.3,0-0.5-0.2-0.8-0.2c-0.5-0.2-0.9-0.2-1.4-0.3c-0.5-0.2-0.8-0.3-1.3-0.5c-0.3-0.2-0.6-0.5-0.8-0.8c-0.2-0.3-0.3-0.8-0.3-1.3
		s0.2-0.9,0.3-1.4c0.2-0.5,0.5-0.8,0.9-0.9c0.3-0.3,0.8-0.5,1.3-0.6c0.5-0.2,0.9-0.2,1.4-0.2c0.8,0,1.4,0.2,2.1,0.5s1.1,0.8,1.4,1.4
		l-1.4,0.9c-0.2-0.3-0.5-0.6-0.9-0.9c-0.3-0.3-0.8-0.3-1.4-0.3c-0.3,0-0.5,0-0.8,0.2c-0.3,0-0.5,0.2-0.6,0.3
		c-0.2,0.2-0.3,0.3-0.5,0.5s-0.2,0.5-0.2,0.6c0,0.2,0,0.5,0.2,0.6c0.2,0.2,0.3,0.3,0.6,0.5s0.5,0.2,0.8,0.3c0.3,0.2,0.6,0.2,0.9,0.2
		c0.5,0.2,0.9,0.2,1.3,0.3c0.5,0.2,0.8,0.3,1.1,0.6c0.3,0.3,0.6,0.5,0.8,0.9c0.2,0.3,0.3,0.8,0.3,1.3c0,0.6-0.2,1.1-0.3,1.6
		c-0.3,0.5-0.6,0.8-0.9,1.1c-0.5,0.3-0.8,0.5-1.4,0.6c-0.5,0.2-0.9,0.2-1.6,0.2c-0.9,0-1.7-0.2-2.4-0.5c-0.6-0.3-1.3-0.8-1.7-1.6
		L399.6,99.1z"/>
	<path class="st0" d="M415.1,92.8h-3.2v5.4c0,0.3,0,0.6,0,0.9s0,0.6,0.2,0.8c0.2,0.2,0.3,0.3,0.5,0.5s0.5,0.2,0.9,0.2
		c0.3,0,0.5,0,0.8-0.2c0.3,0,0.5-0.2,0.8-0.3v1.6c-0.3,0.2-0.6,0.2-0.9,0.3c-0.3,0-0.8,0.2-1.1,0.2c-0.6,0-1.1-0.2-1.6-0.3
		c-0.3-0.2-0.6-0.5-0.9-0.6c-0.2-0.3-0.3-0.6-0.5-1.1c0-0.5-0.2-0.9-0.2-1.4v-5.9h-2.4v-1.4h2.4v-3h1.7v3h3.2v1.4
		C414.8,92.8,415.1,92.8,415.1,92.8z"/>
	<path class="st0" d="M417.8,93.7c0-0.5,0-0.9,0-1.4s0-0.8,0-1.1h1.7c0,0.3,0,0.6,0,0.8c0,0.3,0,0.6,0,0.9l0,0
		c0.2-0.3,0.3-0.5,0.5-0.8s0.5-0.5,0.8-0.6c0.3-0.2,0.6-0.3,0.9-0.5s0.8-0.2,1.3-0.2c0.3,0,0.5,0,0.8,0.2l-0.2,1.7
		c-0.3-0.2-0.6-0.2-0.9-0.2c-1.1,0-1.9,0.3-2.4,1.1c-0.5,0.6-0.8,1.7-0.8,2.8v5.2h-1.7L417.8,93.7L417.8,93.7z"/>
	<path class="st0" d="M426.2,87.1c0-0.3,0.2-0.6,0.3-0.9c0.3-0.3,0.6-0.3,0.9-0.3s0.6,0.2,0.9,0.3c0.3,0.3,0.3,0.6,0.3,0.9
		s-0.2,0.6-0.3,0.9c-0.3,0.3-0.5,0.3-0.9,0.3c-0.3,0-0.6-0.2-0.9-0.3C426.2,87.7,426.2,87.4,426.2,87.1z M426.5,91.2h1.7v10.6h-1.7
		V91.2z"/>
	<path class="st0" d="M432,84.7h1.7v8.1l0,0c0.5-0.6,1.1-0.9,1.7-1.3c0.6-0.3,1.4-0.5,2.1-0.5c0.8,0,1.6,0.2,2.2,0.5
		s1.3,0.6,1.7,1.1c0.5,0.5,0.8,1.1,1.1,1.7c0.3,0.6,0.5,1.4,0.5,2.2c0,0.8-0.2,1.6-0.5,2.2s-0.6,1.3-1.1,1.7
		c-0.5,0.5-1.1,0.9-1.7,1.1c-0.6,0.3-1.4,0.5-2.1,0.5c-0.9,0-1.7-0.2-2.5-0.6s-1.3-0.9-1.6-1.6l0,0v1.9h-1.7v-17H432z M433.9,96.6
		c0,0.6,0.2,1.1,0.3,1.6s0.5,0.9,0.8,1.3c0.3,0.3,0.8,0.6,1.1,0.8c0.5,0.2,0.9,0.3,1.6,0.3c0.6,0,1.1-0.2,1.6-0.3
		c0.5-0.2,0.8-0.5,1.1-0.8c0.3-0.3,0.6-0.8,0.8-1.3c0.2-0.5,0.3-0.9,0.3-1.6s-0.2-1.1-0.3-1.6c-0.2-0.5-0.5-0.9-0.8-1.3
		c-0.3-0.3-0.8-0.6-1.1-0.8c-0.5-0.2-0.9-0.3-1.6-0.3c-0.6,0-1.1,0.2-1.6,0.3c-0.5,0.2-0.8,0.5-1.1,0.8c-0.3,0.3-0.6,0.8-0.8,1.3
		C433.9,95.5,433.9,95.9,433.9,96.6z"/>
	<path class="st0" d="M455.6,99.3c0,0.5,0,0.9,0,1.4s0,0.8,0,1.1h-1.7c0-0.3,0-0.6,0-0.8c0-0.3,0-0.6,0-0.9l0,0
		c-0.2,0.3-0.3,0.5-0.5,0.8s-0.5,0.5-0.8,0.6c-0.3,0.2-0.6,0.3-0.9,0.5s-0.8,0.2-1.3,0.2c-0.6,0-1.3-0.2-1.7-0.3
		c-0.5-0.2-0.9-0.5-1.3-0.9c-0.3-0.3-0.6-0.8-0.8-1.4c-0.2-0.5-0.3-1.1-0.3-1.7v-6.5h1.7v6.3c0,0.9,0.2,1.6,0.6,2.1
		c0.3,0.5,0.9,0.8,1.9,0.8c0.6,0,1.1-0.2,1.4-0.3c0.5-0.2,0.8-0.5,0.9-0.8c0.3-0.3,0.5-0.8,0.6-1.3c0.2-0.5,0.2-1.1,0.2-1.6v-5.2
		h1.7v8.1C455.5,99.3,455.6,99.3,455.6,99.3z"/>
	<path class="st0" d="M464.9,92.8h-3.2v5.4c0,0.3,0,0.6,0,0.9s0,0.6,0.2,0.8c0.2,0.2,0.3,0.3,0.5,0.5s0.5,0.2,0.9,0.2
		c0.3,0,0.5,0,0.8-0.2c0.3,0,0.5-0.2,0.8-0.3v1.6c-0.3,0.2-0.6,0.2-0.9,0.3c-0.3,0-0.8,0.2-1.1,0.2c-0.6,0-1.1-0.2-1.6-0.3
		c-0.3-0.2-0.6-0.5-0.9-0.6c-0.2-0.3-0.3-0.6-0.5-1.1c0-0.5-0.2-0.9-0.2-1.4v-5.9h-2.4v-1.4h2.4v-3h1.7v3h3.2v1.4
		C464.6,92.8,464.9,92.8,464.9,92.8z"/>
	<path class="st0" d="M467.3,87.1c0-0.3,0.2-0.6,0.3-0.9c0.3-0.3,0.6-0.3,0.9-0.3s0.6,0.2,0.9,0.3c0.3,0.3,0.3,0.6,0.3,0.9
		s-0.2,0.6-0.3,0.9c-0.3,0.3-0.5,0.3-0.9,0.3c-0.3,0-0.6-0.2-0.9-0.3C467.5,87.7,467.3,87.4,467.3,87.1z M467.8,91.2h1.7v10.6h-1.7
		V91.2z"/>
	<path class="st0" d="M472.9,96.6c0-0.8,0.2-1.6,0.5-2.2s0.6-1.3,1.1-1.7c0.5-0.5,1.1-0.9,1.7-1.1c0.6-0.3,1.4-0.5,2.2-0.5
		s1.6,0.2,2.2,0.5s1.3,0.6,1.7,1.1c0.5,0.5,0.9,1.1,1.1,1.7c0.3,0.6,0.5,1.4,0.5,2.2c0,0.8-0.2,1.6-0.5,2.2s-0.6,1.3-1.1,1.7
		c-0.5,0.5-1.1,0.9-1.7,1.1c-0.6,0.3-1.4,0.5-2.2,0.5s-1.6-0.2-2.2-0.5s-1.3-0.6-1.7-1.1c-0.5-0.5-0.9-1.1-1.1-1.7
		C473,98.2,472.9,97.4,472.9,96.6z M474.8,96.6c0,0.6,0.2,1.1,0.3,1.6s0.5,0.9,0.8,1.3c0.3,0.3,0.8,0.6,1.1,0.8
		c0.5,0.2,0.9,0.3,1.6,0.3c0.6,0,1.1-0.2,1.6-0.3c0.5-0.2,0.8-0.5,1.1-0.8c0.3-0.3,0.6-0.8,0.8-1.3c0.2-0.5,0.3-0.9,0.3-1.6
		s-0.2-1.1-0.3-1.6s-0.5-0.9-0.8-1.3c-0.3-0.3-0.8-0.6-1.1-0.8c-0.5-0.2-0.9-0.3-1.6-0.3c-0.6,0-1.1,0.2-1.6,0.3
		c-0.5,0.2-0.8,0.5-1.1,0.8c-0.3,0.3-0.6,0.8-0.8,1.3S474.8,95.9,474.8,96.6z"/>
	<path class="st0" d="M487.3,93.7c0-0.5,0-0.9,0-1.4s0-0.8,0-1.1h1.7c0,0.3,0,0.6,0,0.8c0,0.3,0,0.6,0,0.9l0,0
		c0.2-0.3,0.3-0.5,0.5-0.8s0.5-0.5,0.8-0.6c0.3-0.2,0.6-0.3,0.9-0.5s0.8-0.2,1.3-0.2c0.6,0,1.3,0.2,1.7,0.3s0.9,0.5,1.3,0.9
		c0.3,0.3,0.6,0.8,0.8,1.4c0.2,0.5,0.2,1.1,0.2,1.7v6.5h-1.7v-6.3c0-0.9-0.2-1.6-0.6-2.1s-0.9-0.8-1.9-0.8c-0.6,0-1.1,0.2-1.4,0.3
		c-0.5,0.2-0.8,0.5-0.9,0.8c-0.3,0.3-0.5,0.8-0.6,1.3c-0.2,0.5-0.2,1.1-0.2,1.6v5.2h-1.7L487.3,93.7L487.3,93.7z"/>
	<path class="st1" d="M244.2,115.7h4.4l4.3,11.2l4.3-11.2h4.3v16.1h-2.7v-13.3l0,0l-4.9,13.3h-2.1l-4.9-13.3l0,0v13.3h-2.7
		L244.2,115.7L244.2,115.7z"/>
	<path class="st1" d="M274,130.3L274,130.3c-0.5,0.6-0.9,1.1-1.6,1.4s-1.3,0.5-2.1,0.5c-0.5,0-0.9,0-1.4-0.2s-0.9-0.3-1.3-0.6
		c-0.3-0.3-0.6-0.6-0.9-0.9c-0.2-0.5-0.3-0.9-0.3-1.4c0-0.6,0.2-1.1,0.3-1.6c0.2-0.5,0.5-0.8,0.8-1.1c0.3-0.3,0.8-0.5,1.3-0.6
		c0.5-0.2,0.9-0.3,1.4-0.3c0.5-0.2,0.9-0.2,1.6-0.2c0.5,0,0.9,0,1.4,0h0.6V125c0-0.6-0.2-1.3-0.6-1.6s-1.1-0.5-1.7-0.5
		s-1.1,0.2-1.6,0.3c-0.5,0.2-0.9,0.5-1.3,0.8l-1.4-1.4c0.6-0.6,1.3-1.1,2.1-1.4c0.8-0.3,1.6-0.3,2.5-0.3c0.8,0,1.4,0.2,1.9,0.3
		c0.5,0.2,0.9,0.3,1.3,0.6c0.3,0.3,0.6,0.6,0.8,0.9s0.3,0.8,0.5,1.1c0.2,0.3,0.2,0.8,0.2,1.1s0,0.6,0,0.9v6.3H274V130.3z
		 M273.8,126.8h-0.6c-0.3,0-0.8,0-1.3,0s-0.9,0.2-1.3,0.2c-0.5,0.2-0.8,0.3-1.1,0.5c-0.3,0.2-0.5,0.5-0.5,0.9c0,0.3,0,0.5,0.2,0.6
		c0.2,0.2,0.3,0.3,0.5,0.5s0.3,0.2,0.6,0.3c0.2,0,0.5,0.2,0.6,0.2c0.9,0,1.6-0.2,2.1-0.6s0.6-1.1,0.6-1.9L273.8,126.8L273.8,126.8z"
		/>
	<path class="st1" d="M281.6,120.8h2.5v1.7l0,0c0.3-0.5,0.6-0.9,1.1-1.4s1.3-0.6,2.2-0.6c0.8,0,1.3,0.2,1.9,0.3
		c0.5,0.3,0.9,0.6,1.3,0.9c0.3,0.3,0.5,0.8,0.6,1.4c0.2,0.5,0.2,1.1,0.2,1.6v7h-2.5v-5.5c0-0.3,0-0.6,0-0.9s-0.2-0.8-0.2-1.1
		c-0.2-0.3-0.3-0.6-0.6-0.8c-0.3-0.2-0.6-0.3-1.1-0.3s-0.8,0-1.1,0.2c-0.3,0.2-0.6,0.3-0.8,0.6c-0.2,0.3-0.3,0.5-0.5,0.9
		c-0.2,0.3-0.2,0.6-0.2,1.1v6h-2.7L281.6,120.8C281.7,120.8,281.6,120.8,281.6,120.8z"/>
	<path class="st1" d="M303.9,130.3L303.9,130.3c-0.5,0.6-0.9,1.1-1.6,1.4s-1.3,0.5-2.1,0.5c-0.5,0-0.9,0-1.4-0.2s-0.9-0.3-1.3-0.6
		c-0.3-0.3-0.6-0.6-0.9-0.9c-0.2-0.5-0.3-0.9-0.3-1.4c0-0.6,0.2-1.1,0.3-1.6c0.2-0.5,0.5-0.8,0.8-1.1c0.3-0.3,0.8-0.5,1.3-0.6
		c0.5-0.2,0.9-0.3,1.4-0.3c0.5-0.2,0.9-0.2,1.6-0.2c0.5,0,0.9,0,1.4,0h0.6V125c0-0.6-0.2-1.3-0.6-1.6s-1.1-0.5-1.7-0.5
		s-1.1,0.2-1.6,0.3c-0.5,0.2-0.9,0.5-1.3,0.8l-1.4-1.4c0.6-0.6,1.3-1.1,2.1-1.4c0.8-0.3,1.6-0.3,2.5-0.3c0.8,0,1.4,0.2,1.9,0.3
		c0.5,0.2,0.9,0.3,1.3,0.6c0.3,0.3,0.6,0.6,0.8,0.9s0.3,0.8,0.5,1.1c0.2,0.3,0.2,0.8,0.2,1.1s0,0.6,0,0.9v6.3H304L303.9,130.3
		L303.9,130.3z M303.7,126.8h-0.6c-0.3,0-0.8,0-1.3,0s-0.9,0.2-1.3,0.2c-0.5,0.2-0.8,0.3-1.1,0.5c-0.3,0.2-0.5,0.5-0.5,0.9
		c0,0.3,0,0.5,0.2,0.6c0.2,0.2,0.3,0.3,0.5,0.5s0.3,0.2,0.6,0.3c0.2,0,0.5,0.2,0.6,0.2c0.9,0,1.6-0.2,2.1-0.6s0.6-1.1,0.6-1.9
		L303.7,126.8L303.7,126.8z"/>
	<path class="st1" d="M322.7,120.8v10c0,0.9-0.2,1.9-0.3,2.7c-0.3,0.8-0.6,1.4-1.1,2.1c-0.5,0.6-1.1,0.9-1.9,1.3
		c-0.8,0.3-1.7,0.5-2.7,0.5s-1.9-0.2-2.8-0.3c-0.9-0.3-1.7-0.8-2.5-1.4l1.6-2.2c0.5,0.5,1.1,0.9,1.7,1.1c0.6,0.3,1.3,0.5,2.1,0.5
		c0.6,0,1.3-0.2,1.6-0.3c0.5-0.2,0.8-0.5,1.1-0.8c0.3-0.3,0.5-0.6,0.6-1.1s0.2-0.9,0.2-1.4v-0.8l0,0c-0.3,0.5-0.9,0.9-1.6,1.1
		c-0.6,0.3-1.3,0.5-2.1,0.5s-1.6-0.2-2.2-0.5s-1.3-0.6-1.7-1.3c-0.5-0.5-0.8-1.1-1.1-1.7c-0.3-0.6-0.3-1.4-0.3-2.2s0.2-1.6,0.3-2.2
		c0.3-0.6,0.6-1.3,1.1-1.7c0.5-0.5,1.1-0.9,1.7-1.3c0.6-0.3,1.4-0.5,2.2-0.5s1.4,0.2,2.2,0.5c0.6,0.3,1.3,0.8,1.6,1.4l0,0v-1.6
		L322.7,120.8L322.7,120.8z M316.9,123c-0.5,0-0.9,0.2-1.3,0.3c-0.3,0.2-0.8,0.3-0.9,0.6c-0.3,0.3-0.5,0.6-0.6,0.9
		c-0.2,0.5-0.2,0.8-0.2,1.3s0,0.8,0.2,1.3c0.2,0.3,0.3,0.6,0.6,0.9c0.3,0.3,0.6,0.5,0.9,0.6c0.3,0.2,0.8,0.3,1.3,0.3
		s0.9-0.2,1.4-0.3c0.5-0.2,0.8-0.3,0.9-0.6c0.3-0.3,0.5-0.6,0.6-0.9c0.2-0.3,0.2-0.8,0.2-1.3c0-0.9-0.3-1.7-0.8-2.4
		C318.6,123.3,317.8,123,316.9,123z"/>
	<path class="st1" d="M330.3,127.3c0.2,0.8,0.5,1.4,0.9,1.9c0.5,0.5,1.3,0.6,1.9,0.6s1.3-0.2,1.7-0.5c0.5-0.3,0.8-0.6,1.3-1.1
		l1.9,1.4c-0.6,0.8-1.3,1.4-2.1,1.7c-0.8,0.3-1.6,0.5-2.5,0.5c-0.8,0-1.6-0.2-2.4-0.5s-1.4-0.6-1.9-1.1s-0.9-1.1-1.3-1.7
		c-0.3-0.6-0.5-1.4-0.5-2.4c0-0.8,0.2-1.6,0.5-2.4c0.3-0.6,0.8-1.3,1.3-1.7s1.1-0.9,1.9-1.1c0.8-0.3,1.4-0.5,2.4-0.5
		c0.8,0,1.4,0.2,2.1,0.3c0.6,0.3,1.1,0.6,1.6,1.1s0.8,1.1,1.1,1.9c0.3,0.8,0.3,1.6,0.3,2.5v0.8L330.3,127.3L330.3,127.3z
		 M335.8,125.2c0-0.8-0.3-1.4-0.8-1.9s-1.1-0.6-2.1-0.6c-0.8,0-1.4,0.2-1.9,0.6c-0.5,0.5-0.8,1.1-0.8,1.9H335.8z"/>
	<path class="st1" d="M343.3,120.8h2.5v1.7l0,0c0.2-0.5,0.6-0.9,1.1-1.4s1.3-0.6,2.2-0.6c1.7,0,2.8,0.6,3.5,2.1
		c0.3-0.6,0.9-1.3,1.4-1.6c0.6-0.3,1.3-0.5,2.1-0.5s1.3,0.2,1.9,0.3c0.6,0.2,0.9,0.6,1.3,0.9c0.3,0.5,0.5,0.9,0.6,1.4
		c0.2,0.6,0.2,1.1,0.2,1.7v6.5h-2.7v-6.2c0-0.3,0-0.6-0.2-0.9c0-0.3-0.2-0.6-0.3-0.8c-0.2-0.2-0.3-0.5-0.6-0.6
		c-0.3-0.2-0.6-0.2-0.9-0.2c-0.5,0-0.8,0.2-1.1,0.3s-0.5,0.3-0.8,0.6c-0.2,0.3-0.3,0.6-0.5,0.9s-0.2,0.6-0.2,1.1v5.9h-2.7v-6.5
		c0-0.6-0.2-1.3-0.5-1.6c-0.3-0.5-0.8-0.6-1.4-0.6c-0.5,0-0.8,0-1.1,0.2c-0.3,0.2-0.6,0.3-0.8,0.6c-0.2,0.3-0.3,0.5-0.5,0.9
		c-0.2,0.3-0.2,0.6-0.2,1.1v6H343v-10.9C343,120.8,343.3,120.8,343.3,120.8z"/>
	<path class="st1" d="M367.6,127.3c0.2,0.8,0.5,1.4,0.9,1.9s1.3,0.6,1.9,0.6s1.3-0.2,1.7-0.5s0.8-0.6,1.3-1.1l1.9,1.4
		c-0.6,0.8-1.3,1.4-2.1,1.7c-0.8,0.3-1.6,0.5-2.5,0.5c-0.8,0-1.6-0.2-2.4-0.5s-1.4-0.6-1.9-1.1s-0.9-1.1-1.3-1.7
		c-0.3-0.6-0.5-1.4-0.5-2.4c0-0.8,0.2-1.6,0.5-2.4c0.3-0.6,0.8-1.3,1.3-1.7c0.5-0.5,1.1-0.9,1.9-1.1c0.8-0.3,1.4-0.5,2.4-0.5
		c0.8,0,1.4,0.2,2.1,0.3c0.6,0.3,1.1,0.6,1.6,1.1s0.8,1.1,1.1,1.9c0.3,0.8,0.3,1.6,0.3,2.5v0.8L367.6,127.3L367.6,127.3z
		 M373.2,125.2c0-0.8-0.3-1.4-0.8-1.9s-1.1-0.6-2.1-0.6c-0.8,0-1.4,0.2-1.9,0.6c-0.5,0.5-0.8,1.1-0.8,1.9H373.2z"/>
	<path class="st1" d="M380.8,120.8h2.5v1.7l0,0c0.3-0.5,0.6-0.9,1.1-1.4s1.3-0.6,2.2-0.6c0.8,0,1.3,0.2,1.9,0.3
		c0.5,0.3,0.9,0.6,1.3,0.9s0.5,0.8,0.6,1.4c0.2,0.5,0.2,1.1,0.2,1.6v7h-2.7v-5.5c0-0.3,0-0.6,0-0.9s-0.2-0.8-0.3-1.1
		c-0.2-0.3-0.3-0.6-0.6-0.8c-0.3-0.2-0.6-0.3-1.1-0.3s-0.8,0-1.1,0.2c-0.3,0.2-0.6,0.3-0.8,0.6c-0.2,0.3-0.3,0.5-0.5,0.9
		c-0.2,0.3-0.2,0.6-0.2,1.1v6h-2.7L380.8,120.8L380.8,120.8z"/>
	<path class="st1" d="M394.7,123.2v-2.4h2.2v-3.2h2.7v3.2h3v2.4h-3v4.7c0,0.5,0.2,0.9,0.3,1.3s0.6,0.5,1.3,0.5c0.2,0,0.5,0,0.8-0.2
		c0.3,0,0.5-0.2,0.6-0.3v2.4c-0.3,0.2-0.6,0.2-1.1,0.3c-0.5,0-0.8,0.2-1.1,0.2c-0.8,0-1.3,0-1.7-0.2c-0.5-0.2-0.8-0.5-1.1-0.8
		s-0.5-0.8-0.5-1.3c-0.2-0.5-0.2-1.1-0.2-1.7V123L394.7,123.2L394.7,123.2z"/>
	<path class="st1" d="M422.1,119c-0.3-0.5-0.6-0.8-1.3-0.9c-0.6-0.2-1.1-0.3-1.6-0.3c-0.3,0-0.6,0-0.9,0.2c-0.3,0-0.6,0.2-0.8,0.3
		c-0.3,0.2-0.5,0.3-0.6,0.6c-0.2,0.3-0.2,0.6-0.2,0.9c0,0.5,0.2,0.9,0.6,1.3c0.5,0.3,0.8,0.5,1.4,0.8c0.6,0.2,1.1,0.5,1.9,0.6
		c0.6,0.2,1.3,0.5,1.9,0.8s0.9,0.8,1.4,1.4c0.3,0.6,0.6,1.3,0.6,2.4c0,0.8-0.2,1.6-0.5,2.2c-0.3,0.6-0.8,1.1-1.3,1.6
		s-1.1,0.8-1.9,0.9c-0.6,0.2-1.4,0.3-2.2,0.3c-0.9,0-1.9-0.2-2.8-0.5s-1.7-0.9-2.4-1.7l2.2-2.1c0.3,0.5,0.8,0.9,1.4,1.3
		c0.6,0.3,1.1,0.5,1.7,0.5c0.3,0,0.6,0,0.9-0.2s0.6-0.2,0.9-0.5c0.3-0.2,0.5-0.5,0.6-0.6c0.2-0.3,0.3-0.6,0.3-0.9
		c0-0.6-0.2-1.1-0.6-1.4c-0.3-0.3-0.8-0.6-1.4-0.8s-1.1-0.5-1.9-0.6c-0.6-0.2-1.3-0.5-1.9-0.8s-0.9-0.8-1.4-1.4
		c-0.3-0.6-0.6-1.3-0.6-2.2c0-0.8,0.2-1.6,0.5-2.2s0.8-1.1,1.3-1.6s1.1-0.6,1.9-0.9c0.6-0.2,1.4-0.3,2.2-0.3s1.7,0.2,2.5,0.3
		c0.8,0.3,1.4,0.6,2.1,1.3L422.1,119z"/>
	<path class="st1" d="M427.4,120.8h3l3,7.6l0,0l2.7-7.6h2.8l-5.2,13.3c-0.2,0.5-0.5,0.9-0.6,1.4c-0.2,0.3-0.5,0.6-0.8,0.9
		c-0.3,0.3-0.6,0.5-1.1,0.6c-0.5,0.2-0.9,0.2-1.6,0.2c-0.6,0-1.4-0.2-2.1-0.3l0.3-2.4c0.2,0,0.5,0.2,0.6,0.2s0.5,0,0.6,0
		c0.3,0,0.6,0,0.8-0.2c0.2,0,0.5-0.2,0.6-0.3s0.3-0.3,0.3-0.5c0.2-0.2,0.2-0.5,0.3-0.8l0.5-1.3L427.4,120.8z"/>
	<path class="st1" d="M448.8,123.8c-0.5-0.8-1.3-1.1-2.1-1.1c-0.3,0-0.8,0.2-1.1,0.3s-0.5,0.5-0.5,0.9c0,0.3,0.2,0.6,0.5,0.8
		c0.3,0.2,0.6,0.3,1.1,0.3c0.5,0.2,0.9,0.2,1.4,0.3c0.5,0.2,0.9,0.3,1.4,0.5s0.8,0.5,1.1,0.9c0.3,0.5,0.5,0.9,0.5,1.7
		c0,0.6-0.2,1.3-0.5,1.6c-0.3,0.5-0.6,0.8-1.1,1.1s-0.9,0.5-1.6,0.6c-0.6,0.2-1.1,0.2-1.7,0.2c-0.8,0-1.6-0.2-2.4-0.3
		c-0.6-0.3-1.3-0.6-1.9-1.3l1.7-1.7c0.3,0.5,0.8,0.8,1.1,0.9c0.5,0.3,0.9,0.3,1.4,0.3c0.2,0,0.5,0,0.6,0s0.5-0.2,0.6-0.2
		c0.2-0.2,0.3-0.3,0.5-0.5s0.2-0.3,0.2-0.5c0-0.3-0.2-0.6-0.5-0.8s-0.6-0.3-1.1-0.5s-0.9-0.2-1.4-0.3c-0.5-0.2-0.9-0.3-1.4-0.5
		s-0.8-0.5-1.1-0.9s-0.5-0.9-0.5-1.6c0-0.6,0.2-1.1,0.3-1.6c0.3-0.5,0.6-0.8,0.9-1.1c0.5-0.3,0.9-0.5,1.4-0.6s1.1-0.2,1.6-0.2
		c0.8,0,1.4,0.2,2.2,0.3c0.8,0.3,1.3,0.6,1.7,1.3L448.8,123.8z"/>
	<path class="st1" d="M454.2,123.2v-2.4h2.2v-3.2h2.7v3.2h3v2.4h-3v4.7c0,0.5,0.2,0.9,0.3,1.3c0.2,0.3,0.6,0.5,1.3,0.5
		c0.2,0,0.5,0,0.8-0.2c0.3,0,0.5-0.2,0.6-0.3v2.4c-0.3,0.2-0.6,0.2-1.1,0.3c-0.5,0-0.8,0.2-1.1,0.2c-0.8,0-1.3,0-1.7-0.2
		c-0.5-0.2-0.8-0.5-1.1-0.8c-0.3-0.3-0.5-0.8-0.5-1.3c-0.2-0.5-0.2-1.1-0.2-1.7V123L454.2,123.2L454.2,123.2z"/>
	<path class="st1" d="M468.6,127.3c0.2,0.8,0.5,1.4,0.9,1.9c0.5,0.5,1.3,0.6,1.9,0.6s1.3-0.2,1.7-0.5c0.5-0.3,0.8-0.6,1.3-1.1
		l1.9,1.4c-0.6,0.8-1.3,1.4-2.1,1.7c-0.8,0.3-1.6,0.5-2.5,0.5c-0.8,0-1.6-0.2-2.4-0.5s-1.4-0.6-1.9-1.1s-0.9-1.1-1.3-1.7
		c-0.3-0.6-0.5-1.4-0.5-2.4c0-0.8,0.2-1.6,0.5-2.4c0.3-0.6,0.8-1.3,1.3-1.7s1.1-0.9,1.9-1.1c0.8-0.3,1.4-0.5,2.4-0.5
		c0.8,0,1.4,0.2,2.1,0.3s1.1,0.6,1.6,1.1s0.8,1.1,1.1,1.9c0.3,0.8,0.3,1.6,0.3,2.5v0.8L468.6,127.3L468.6,127.3z M474.1,125.2
		c0-0.8-0.3-1.4-0.8-1.9s-1.1-0.6-2.1-0.6c-0.8,0-1.4,0.2-1.9,0.6c-0.5,0.5-0.8,1.1-0.8,1.9H474.1z"/>
	<path class="st1" d="M481.6,120.8h2.5v1.7l0,0c0.2-0.5,0.6-0.9,1.1-1.4s1.3-0.6,2.2-0.6c1.7,0,2.8,0.6,3.5,2.1
		c0.3-0.6,0.9-1.3,1.4-1.6c0.6-0.3,1.3-0.5,2.1-0.5s1.3,0.2,1.9,0.3c0.5,0.3,0.9,0.6,1.3,0.9c0.3,0.5,0.5,0.9,0.6,1.4
		c0.2,0.6,0.2,1.1,0.2,1.7v6.5h-2.7v-6.2c0-0.3,0-0.6-0.2-0.9c0-0.3-0.2-0.6-0.3-0.8c-0.2-0.2-0.3-0.5-0.6-0.6
		c-0.3-0.2-0.6-0.2-0.9-0.2c-0.5,0-0.8,0.2-1.1,0.3s-0.5,0.3-0.8,0.6c-0.2,0.3-0.3,0.6-0.5,0.9s-0.2,0.6-0.2,1.1v5.9h-2.7v-6.5
		c0-0.6-0.2-1.3-0.5-1.6c-0.3-0.3-0.8-0.6-1.4-0.6c-0.5,0-0.8,0-1.1,0.2c-0.3,0.2-0.6,0.3-0.8,0.6c-0.2,0.3-0.3,0.5-0.5,0.9
		c-0.2,0.3-0.2,0.6-0.2,1.1v6h-2.7v-10.9C481.2,120.8,481.6,120.8,481.6,120.8z"/>
</g>
<g>
	<path class="st2" d="M266.5,526.9h0.7l2.5,5.8h-0.8l-0.6-1.4h-2.9l-0.6,1.4H264L266.5,526.9z M266.8,527.7L266.8,527.7l-1.2,2.9
		h2.4L266.8,527.7z"/>
	<path class="st2" d="M270.4,526.9h0.7v5.2h2.7v0.6h-3.3v-5.8H270.4z"/>
	<path class="st2" d="M274.5,526.9h0.7v5.2h2.7v0.6h-3.3v-5.8H274.5z"/>
	<path class="st2" d="M280.2,526.9h1.5c0.3,0,0.6,0,0.8,0c0.3,0,0.5,0.1,0.7,0.2s0.4,0.3,0.5,0.5s0.2,0.5,0.2,0.9s-0.1,0.8-0.4,1
		s-0.6,0.4-1.1,0.5l1.6,2.7h-0.8l-1.6-2.6h-0.9v2.6H280v-5.8H280.2z M280.9,529.4h0.6c0.2,0,0.4,0,0.6,0s0.4,0,0.6-0.1
		s0.3-0.2,0.4-0.3s0.2-0.3,0.2-0.6c0-0.2,0-0.4-0.1-0.5s-0.2-0.2-0.3-0.3c-0.1-0.1-0.3-0.1-0.5-0.1s-0.3,0-0.5,0h-1L280.9,529.4
		L280.9,529.4z"/>
	<path class="st2" d="M285.2,526.9h0.7v5.8h-0.7V526.9z"/>
	<path class="st2" d="M292.3,532.3c-0.3,0.2-0.7,0.3-1.1,0.4s-0.7,0.1-1.1,0.1c-0.5,0-0.9-0.1-1.2-0.2c-0.4-0.1-0.7-0.4-1-0.6
		c-0.3-0.3-0.5-0.6-0.6-1c-0.2-0.4-0.2-0.8-0.2-1.2c0-0.5,0.1-0.9,0.2-1.3s0.4-0.7,0.7-1c0.3-0.3,0.6-0.5,1-0.6s0.8-0.2,1.2-0.2
		c0.4,0,0.8,0.1,1.1,0.2c0.4,0.1,0.7,0.3,0.9,0.6l-0.5,0.5c-0.2-0.2-0.4-0.4-0.7-0.5s-0.6-0.2-0.9-0.2s-0.6,0.1-0.9,0.2
		s-0.5,0.3-0.7,0.5s-0.4,0.5-0.5,0.8s-0.2,0.6-0.2,1c0,0.3,0.1,0.7,0.2,1s0.3,0.5,0.5,0.8s0.5,0.4,0.8,0.5s0.6,0.2,1,0.2
		c0.2,0,0.5,0,0.7-0.1c0.3-0.1,0.5-0.1,0.7-0.3V530h-1.3v-0.6h2v2.9H292.3z"/>
	<path class="st2" d="M293.7,526.9h0.7v2.5h3.1v-2.5h0.7v5.8h-0.7V530h-3.1v2.7h-0.7V526.9z"/>
	<path class="st2" d="M303.5,527.5h-1.9v5.2h-0.7v-5.2H299v-0.6h4.5V527.5z"/>
	<path class="st2" d="M307.1,527.9c-0.1-0.2-0.3-0.3-0.5-0.4c-0.2-0.1-0.4-0.1-0.6-0.1s-0.3,0-0.5,0.1s-0.3,0.1-0.4,0.2
		s-0.2,0.2-0.3,0.3s-0.1,0.3-0.1,0.4c0,0.1,0,0.2,0.1,0.3c0,0.1,0.1,0.2,0.2,0.3s0.2,0.2,0.4,0.2s0.4,0.1,0.6,0.2
		c0.2,0.1,0.4,0.1,0.7,0.2c0.2,0.1,0.4,0.2,0.6,0.3s0.3,0.3,0.4,0.5s0.1,0.4,0.1,0.7s-0.1,0.5-0.2,0.8s-0.3,0.4-0.5,0.5
		s-0.4,0.2-0.7,0.3c-0.2,0.1-0.5,0.1-0.8,0.1c-0.2,0-0.3,0-0.5,0s-0.3-0.1-0.5-0.1c-0.2-0.1-0.3-0.1-0.4-0.2
		c-0.1-0.1-0.3-0.2-0.4-0.4l0.6-0.5c0.1,0.2,0.3,0.4,0.5,0.5s0.5,0.2,0.7,0.2c0.1,0,0.3,0,0.4-0.1c0.2,0,0.3-0.1,0.4-0.2
		c0.1-0.1,0.2-0.2,0.3-0.3c0.1-0.1,0.1-0.3,0.1-0.4c0-0.2,0-0.3-0.1-0.4s-0.2-0.2-0.3-0.3c-0.1-0.1-0.3-0.2-0.5-0.2
		s-0.4-0.1-0.7-0.2c-0.2-0.1-0.4-0.1-0.6-0.2c-0.2-0.1-0.3-0.2-0.5-0.3c-0.1-0.1-0.2-0.3-0.3-0.4s-0.1-0.4-0.1-0.6
		c0-0.3,0.1-0.5,0.2-0.7s0.3-0.4,0.4-0.5c0.2-0.1,0.4-0.2,0.6-0.3s0.5-0.1,0.7-0.1c0.3,0,0.6,0.1,0.9,0.2c0.3,0.1,0.5,0.3,0.7,0.5
		L307.1,527.9z"/>
	<path class="st2" d="M310.5,526.9h1.5c0.3,0,0.6,0,0.8,0c0.3,0,0.5,0.1,0.7,0.2s0.4,0.3,0.5,0.5s0.2,0.5,0.2,0.9s-0.1,0.8-0.4,1
		s-0.6,0.4-1.1,0.5l1.6,2.7h-0.8L312,530h-0.9v2.6h-0.7v-5.7H310.5z M311.1,529.4h0.6c0.2,0,0.4,0,0.6,0s0.4,0,0.6-0.1
		s0.3-0.2,0.4-0.3s0.2-0.3,0.2-0.6c0-0.2,0-0.4-0.1-0.5s-0.2-0.2-0.3-0.3c-0.1-0.1-0.3-0.1-0.5-0.1s-0.3,0-0.5,0h-1L311.1,529.4
		L311.1,529.4z"/>
	<path class="st2" d="M315.5,526.9h3.6v0.6h-3v1.8h2.8v0.6h-2.8v2.1h3.1v0.6h-3.8L315.5,526.9L315.5,526.9z"/>
	<path class="st2" d="M323.1,527.9c-0.1-0.2-0.3-0.3-0.5-0.4c-0.2-0.1-0.4-0.1-0.6-0.1s-0.3,0-0.5,0.1s-0.3,0.1-0.4,0.2
		s-0.2,0.2-0.3,0.3s-0.1,0.3-0.1,0.4c0,0.1,0,0.2,0.1,0.3c0,0.1,0.1,0.2,0.2,0.3s0.2,0.2,0.4,0.2s0.4,0.1,0.6,0.2
		c0.2,0.1,0.4,0.1,0.7,0.2c0.2,0.1,0.4,0.2,0.6,0.3s0.3,0.3,0.4,0.5s0.1,0.4,0.1,0.7s-0.1,0.5-0.2,0.8s-0.3,0.4-0.5,0.5
		s-0.4,0.2-0.7,0.3c-0.2,0.1-0.5,0.1-0.8,0.1c-0.2,0-0.3,0-0.5,0s-0.3-0.1-0.5-0.1c-0.2-0.1-0.3-0.1-0.4-0.2
		c-0.1-0.1-0.3-0.2-0.4-0.4l0.6-0.5c0.1,0.2,0.3,0.4,0.5,0.5s0.5,0.2,0.7,0.2c0.1,0,0.3,0,0.4-0.1c0.2,0,0.3-0.1,0.4-0.2
		c0.1-0.1,0.2-0.2,0.3-0.3c0.1-0.1,0.1-0.3,0.1-0.4c0-0.2,0-0.3-0.1-0.4s-0.2-0.2-0.3-0.3c-0.1-0.1-0.3-0.2-0.5-0.2
		s-0.4-0.1-0.7-0.2c-0.2-0.1-0.4-0.1-0.6-0.2c-0.2-0.1-0.3-0.2-0.5-0.3c-0.1-0.1-0.2-0.3-0.3-0.4s-0.1-0.4-0.1-0.6
		c0-0.3,0.1-0.5,0.2-0.7s0.3-0.4,0.4-0.5c0.2-0.1,0.4-0.2,0.6-0.3s0.5-0.1,0.7-0.1c0.3,0,0.6,0.1,0.9,0.2c0.3,0.1,0.5,0.3,0.7,0.5
		L323.1,527.9z"/>
	<path class="st2" d="M324.9,526.9h3.6v0.6h-3v1.8h2.8v0.6h-2.8v2.1h3.1v0.6h-3.8L324.9,526.9L324.9,526.9z"/>
	<path class="st2" d="M329.7,526.9h1.5c0.3,0,0.6,0,0.8,0c0.3,0,0.5,0.1,0.7,0.2s0.4,0.3,0.5,0.5s0.2,0.5,0.2,0.9s-0.1,0.8-0.4,1
		s-0.6,0.4-1.1,0.5l1.6,2.7h-0.8l-1.6-2.6h-0.9v2.6h-0.7v-5.8H329.7z M330.4,529.4h0.6c0.2,0,0.4,0,0.6,0s0.4,0,0.6-0.1
		s0.3-0.2,0.4-0.3s0.2-0.3,0.2-0.6c0-0.2,0-0.4-0.1-0.5s-0.2-0.2-0.3-0.3c-0.1-0.1-0.3-0.1-0.5-0.1s-0.3,0-0.5,0h-1L330.4,529.4
		L330.4,529.4z"/>
	<path class="st2" d="M333.9,526.9h0.8l1.8,4.8l0,0l1.8-4.8h0.7l-2.3,5.8H336L333.9,526.9z"/>
	<path class="st2" d="M339.7,526.9h3.6v0.6h-3v1.8h2.8v0.6h-2.8v2.1h3.1v0.6h-3.8L339.7,526.9L339.7,526.9z"/>
	<path class="st2" d="M344.5,526.9h2.2c0.2,0,0.4,0,0.6,0.1s0.4,0.1,0.6,0.2c0.2,0.1,0.4,0.2,0.6,0.4s0.4,0.3,0.5,0.6
		c0.1,0.2,0.3,0.5,0.4,0.7s0.1,0.6,0.1,1s0,0.7-0.1,1s-0.2,0.5-0.4,0.7c-0.1,0.2-0.3,0.4-0.5,0.6c-0.2,0.2-0.4,0.3-0.6,0.4
		c-0.2,0.1-0.4,0.2-0.6,0.2s-0.4,0.1-0.6,0.1h-2.2V526.9z M345.2,532h1.3c0.3,0,0.6,0,0.9-0.1s0.5-0.2,0.7-0.4s0.4-0.4,0.5-0.7
		s0.2-0.6,0.2-1s-0.1-0.7-0.2-1s-0.3-0.5-0.5-0.7s-0.5-0.3-0.7-0.4c-0.3-0.1-0.6-0.1-0.9-0.1h-1.3V532z"/>
	<path class="st2" d="M351.8,529.8c0-0.4,0.1-0.8,0.2-1.2c0.2-0.4,0.4-0.7,0.7-1c0.3-0.3,0.6-0.5,1-0.6c0.4-0.2,0.8-0.2,1.2-0.2
		s0.8,0.1,1.2,0.2c0.4,0.2,0.7,0.4,1,0.6c0.3,0.3,0.5,0.6,0.7,1s0.2,0.8,0.2,1.2s-0.1,0.8-0.2,1.2c-0.2,0.4-0.4,0.7-0.7,1
		c-0.3,0.3-0.6,0.5-1,0.6c-0.4,0.2-0.8,0.2-1.2,0.2s-0.8-0.1-1.2-0.2c-0.4-0.2-0.7-0.4-1-0.6c-0.3-0.3-0.5-0.6-0.7-1
		C351.9,530.6,351.8,530.2,351.8,529.8z M352.3,529.8c0,0.4,0.1,0.7,0.2,1s0.3,0.6,0.5,0.8s0.5,0.4,0.8,0.5s0.6,0.2,1,0.2
		s0.7-0.1,1-0.2s0.6-0.3,0.8-0.5s0.4-0.5,0.5-0.8s0.2-0.7,0.2-1c0-0.4-0.1-0.7-0.2-1s-0.3-0.6-0.5-0.8s-0.5-0.4-0.8-0.5
		s-0.6-0.2-1-0.2c-0.3,0-0.7,0.1-1,0.2s-0.6,0.3-0.8,0.5c-0.2,0.2-0.4,0.5-0.5,0.8C352.4,529,352.3,529.4,352.3,529.8z M356.5,530.3
		c-0.1,0.4-0.3,0.7-0.5,0.9c-0.3,0.2-0.6,0.3-1,0.3c-0.3,0-0.5,0-0.8-0.1c-0.2-0.1-0.4-0.2-0.6-0.4s-0.3-0.4-0.4-0.6
		c-0.1-0.2-0.1-0.5-0.1-0.7c0-0.3,0-0.5,0.1-0.7s0.2-0.4,0.4-0.6s0.3-0.3,0.6-0.4c0.2-0.1,0.5-0.1,0.8-0.1c0.2,0,0.4,0,0.5,0.1
		c0.2,0.1,0.3,0.1,0.5,0.2c0.1,0.1,0.2,0.2,0.3,0.4c0.1,0.2,0.2,0.3,0.2,0.5H356c0-0.2-0.2-0.4-0.3-0.6c-0.2-0.1-0.4-0.2-0.7-0.2
		c-0.2,0-0.4,0-0.5,0.1c-0.2,0.1-0.3,0.2-0.4,0.3s-0.2,0.3-0.2,0.4c-0.1,0.2-0.1,0.4-0.1,0.6c0,0.2,0,0.4,0.1,0.5s0.1,0.3,0.3,0.5
		c0.1,0.1,0.2,0.2,0.4,0.3s0.3,0.1,0.5,0.1c0.3,0,0.5-0.1,0.7-0.2s0.3-0.4,0.3-0.6H356.5z"/>
	<path class="st2" d="M364.8,527.9c-0.1-0.2-0.3-0.3-0.5-0.4c-0.2-0.1-0.4-0.1-0.6-0.1s-0.3,0-0.5,0.1s-0.3,0.1-0.4,0.2
		s-0.2,0.2-0.3,0.3s-0.1,0.3-0.1,0.4c0,0.1,0,0.2,0.1,0.3c0,0.1,0.1,0.2,0.2,0.3s0.2,0.2,0.4,0.2s0.4,0.1,0.6,0.2
		c0.2,0.1,0.4,0.1,0.7,0.2c0.2,0.1,0.4,0.2,0.6,0.3s0.3,0.3,0.4,0.5s0.1,0.4,0.1,0.7s-0.1,0.5-0.2,0.8s-0.3,0.4-0.5,0.5
		s-0.4,0.2-0.7,0.3c-0.2,0.1-0.5,0.1-0.8,0.1c-0.2,0-0.3,0-0.5,0s-0.3-0.1-0.5-0.1c-0.2-0.1-0.3-0.1-0.4-0.2
		c-0.1-0.1-0.3-0.2-0.4-0.4l0.6-0.5c0.1,0.2,0.3,0.4,0.5,0.5s0.5,0.2,0.7,0.2c0.1,0,0.3,0,0.4-0.1c0.2,0,0.3-0.1,0.4-0.2
		c0.1-0.1,0.2-0.2,0.3-0.3c0.1-0.1,0.1-0.3,0.1-0.4c0-0.2,0-0.3-0.1-0.4s-0.2-0.2-0.3-0.3c-0.1-0.1-0.3-0.2-0.5-0.2
		s-0.4-0.1-0.7-0.2c-0.2-0.1-0.4-0.1-0.6-0.2c-0.2-0.1-0.3-0.2-0.5-0.3c-0.1-0.1-0.2-0.3-0.3-0.4s-0.1-0.4-0.1-0.6
		c0-0.3,0.1-0.5,0.2-0.7s0.3-0.4,0.4-0.5c0.2-0.1,0.4-0.2,0.6-0.3s0.5-0.1,0.7-0.1c0.3,0,0.6,0.1,0.9,0.2c0.3,0.1,0.5,0.3,0.7,0.5
		L364.8,527.9z"/>
	<path class="st2" d="M368.5,526.9h0.7l2.5,5.8h-0.8l-0.6-1.4h-2.9l-0.6,1.4H366L368.5,526.9z M368.8,527.7L368.8,527.7l-1.2,2.9
		h2.4L368.8,527.7z"/>
	<path class="st2" d="M371.7,526.9h0.8l1.3,4.8l0,0l1.4-4.8h0.8l1.4,4.8l0,0l1.3-4.8h0.7l-1.7,5.8H377l-1.4-4.9l0,0l-1.4,4.9h-0.8
		L371.7,526.9z"/>
	<path class="st2" d="M382.1,526.9h0.7l2.5,5.8h-0.8l-0.6-1.4H381l-0.6,1.4h-0.8L382.1,526.9z M382.4,527.7L382.4,527.7l-1.2,2.9
		h2.4L382.4,527.7z"/>
	<path class="st2" d="M392.5,532.3c-0.3,0.2-0.7,0.3-1.1,0.4s-0.7,0.1-1.1,0.1c-0.5,0-0.9-0.1-1.2-0.2c-0.4-0.1-0.7-0.4-1-0.6
		c-0.3-0.3-0.5-0.6-0.6-1c-0.2-0.4-0.2-0.8-0.2-1.2c0-0.5,0.1-0.9,0.2-1.3s0.4-0.7,0.7-1c0.3-0.3,0.6-0.5,1-0.6s0.8-0.2,1.2-0.2
		c0.4,0,0.8,0.1,1.1,0.2c0.4,0.1,0.7,0.3,0.9,0.6l-0.5,0.5c-0.2-0.2-0.4-0.4-0.7-0.5s-0.6-0.2-0.9-0.2s-0.6,0.1-0.9,0.2
		s-0.5,0.3-0.7,0.5s-0.4,0.5-0.5,0.8s-0.2,0.6-0.2,1c0,0.3,0.1,0.7,0.2,1s0.3,0.5,0.5,0.8s0.5,0.4,0.8,0.5s0.6,0.2,1,0.2
		c0.2,0,0.5,0,0.7-0.1c0.3-0.1,0.5-0.1,0.7-0.3V530h-1.3v-0.6h2v2.9H392.5z"/>
	<path class="st2" d="M393.9,529.7c0-0.2,0-0.3,0-0.5s0-0.3,0-0.4h0.6c0,0.1,0,0.2,0,0.3s0,0.2,0,0.3l0,0c0-0.1,0.1-0.2,0.2-0.3
		s0.2-0.2,0.3-0.2s0.2-0.1,0.4-0.2c0.1,0,0.3-0.1,0.4-0.1s0.2,0,0.3,0v0.6c-0.1,0-0.2,0-0.3,0c-0.4,0-0.7,0.1-0.9,0.4
		c-0.2,0.3-0.3,0.6-0.3,1v1.9H394v-2.8H393.9z"/>
	<path class="st2" d="M396.5,530.7c0-0.3,0.1-0.6,0.2-0.8s0.2-0.5,0.4-0.6c0.2-0.2,0.4-0.3,0.6-0.4c0.3-0.1,0.5-0.1,0.8-0.1
		s0.6,0,0.8,0.1c0.3,0.1,0.5,0.2,0.6,0.4c0.2,0.2,0.3,0.4,0.4,0.6c0.1,0.2,0.2,0.5,0.2,0.8s-0.1,0.6-0.2,0.8s-0.2,0.5-0.4,0.6
		c-0.2,0.2-0.4,0.3-0.6,0.4c-0.3,0.1-0.5,0.2-0.8,0.2s-0.6-0.1-0.8-0.2c-0.3-0.1-0.5-0.2-0.6-0.4c-0.2-0.2-0.3-0.4-0.4-0.6
		C396.6,531.3,396.5,531,396.5,530.7z M397.2,530.7c0,0.2,0,0.4,0.1,0.6c0.1,0.2,0.2,0.3,0.3,0.5s0.3,0.2,0.4,0.3
		c0.2,0.1,0.4,0.1,0.6,0.1s0.4,0,0.6-0.1s0.3-0.2,0.4-0.3s0.2-0.3,0.3-0.5c0.1-0.2,0.1-0.4,0.1-0.6c0-0.2,0-0.4-0.1-0.6
		c-0.1-0.2-0.2-0.3-0.3-0.5c-0.1-0.1-0.3-0.2-0.4-0.3c-0.2-0.1-0.4-0.1-0.6-0.1s-0.4,0-0.6,0.1s-0.3,0.2-0.4,0.3s-0.2,0.3-0.3,0.5
		C397.2,530.3,397.2,530.5,397.2,530.7z"/>
	<path class="st2" d="M405,531.7c0,0.2,0,0.3,0,0.5s0,0.3,0,0.4h-0.6c0-0.1,0-0.2,0-0.3s0-0.2,0-0.3l0,0c0,0.1-0.1,0.2-0.2,0.3
		s-0.2,0.2-0.3,0.2c-0.1,0.1-0.2,0.1-0.4,0.2c-0.1,0-0.3,0.1-0.4,0.1c-0.3,0-0.5,0-0.7-0.1s-0.3-0.2-0.5-0.3
		c-0.1-0.1-0.2-0.3-0.3-0.5c-0.1-0.2-0.1-0.4-0.1-0.6v-2.4h0.6v2.3c0,0.3,0.1,0.6,0.2,0.8s0.4,0.3,0.7,0.3c0.2,0,0.4,0,0.5-0.1
		s0.3-0.2,0.4-0.3s0.2-0.3,0.2-0.5s0.1-0.4,0.1-0.6v-1.9h0.6v2.8H405z"/>
	<path class="st2" d="M406.1,528.8h0.6v0.6l0,0c0.2-0.2,0.4-0.4,0.6-0.5s0.5-0.2,0.8-0.2s0.6,0.1,0.8,0.2c0.2,0.1,0.5,0.2,0.6,0.4
		c0.2,0.2,0.3,0.4,0.4,0.6c0.1,0.2,0.1,0.5,0.1,0.8s0,0.6-0.1,0.8s-0.2,0.5-0.4,0.6c-0.2,0.2-0.4,0.3-0.6,0.4
		c-0.2,0.1-0.5,0.2-0.8,0.2s-0.6-0.1-0.9-0.2c-0.3-0.2-0.4-0.3-0.6-0.6l0,0v2.5H406v-5.6H406.1z M406.8,530.7c0,0.2,0,0.4,0.1,0.6
		c0.1,0.2,0.2,0.3,0.3,0.5s0.3,0.2,0.4,0.3c0.2,0.1,0.4,0.1,0.6,0.1s0.4,0,0.6-0.1s0.3-0.2,0.4-0.3s0.2-0.3,0.3-0.5
		c0.1-0.2,0.1-0.4,0.1-0.6c0-0.2,0-0.4-0.1-0.6c-0.1-0.2-0.2-0.3-0.3-0.5c-0.1-0.1-0.3-0.2-0.4-0.3c-0.2-0.1-0.4-0.1-0.6-0.1
		s-0.4,0-0.6,0.1s-0.3,0.2-0.4,0.3s-0.2,0.3-0.3,0.5C406.8,530.3,406.8,530.5,406.8,530.7z"/>
	<path class="st2" d="M415.6,532.8c-0.4,0-0.9-0.1-1.2-0.2c-0.4-0.2-0.7-0.4-1-0.6c-0.3-0.3-0.5-0.6-0.6-1c-0.2-0.4-0.2-0.8-0.2-1.2
		s0.1-0.8,0.2-1.2c0.2-0.4,0.4-0.7,0.6-1c0.3-0.3,0.6-0.5,1-0.6c0.4-0.2,0.8-0.2,1.2-0.2c0.4,0,0.8,0.1,1.2,0.2
		c0.4,0.2,0.7,0.4,1,0.6c0.3,0.3,0.5,0.6,0.6,1c0.2,0.4,0.2,0.8,0.2,1.2s-0.1,0.8-0.2,1.2c-0.2,0.4-0.4,0.7-0.6,1
		c-0.3,0.3-0.6,0.5-1,0.6C416.4,532.7,416,532.8,415.6,532.8z M415.6,532.2c0.3,0,0.6-0.1,0.9-0.2c0.3-0.1,0.5-0.3,0.7-0.5
		s0.4-0.5,0.5-0.8s0.2-0.6,0.2-0.9c0-0.3-0.1-0.6-0.2-0.9c-0.1-0.3-0.3-0.5-0.5-0.8c-0.2-0.2-0.4-0.4-0.7-0.5s-0.6-0.2-0.9-0.2
		s-0.7,0.1-0.9,0.2s-0.5,0.3-0.7,0.5s-0.4,0.5-0.5,0.8s-0.2,0.6-0.2,0.9c0,0.3,0.1,0.6,0.2,0.9c0.1,0.3,0.3,0.5,0.5,0.8
		c0.2,0.2,0.4,0.4,0.7,0.5C414.9,532.1,415.2,532.2,415.6,532.2z"/>
	<path class="st2" d="M419.6,529.7c0-0.2,0-0.3,0-0.5s0-0.3,0-0.4h0.6c0,0.1,0,0.2,0,0.3s0,0.2,0,0.3l0,0c0-0.1,0.1-0.2,0.2-0.3
		s0.2-0.2,0.3-0.2s0.2-0.1,0.4-0.2c0.1,0,0.3-0.1,0.4-0.1s0.2,0,0.3,0v0.6c-0.1,0-0.2,0-0.3,0c-0.4,0-0.7,0.1-0.9,0.4
		c-0.2,0.3-0.3,0.6-0.3,1v1.9h-0.6v-2.8H419.6z"/>
	<path class="st2" d="M426.3,532.5c0,0.7-0.2,1.2-0.5,1.6c-0.4,0.4-0.9,0.5-1.6,0.5c-0.4,0-0.7-0.1-1-0.2c-0.3-0.1-0.6-0.3-0.9-0.6
		l0.5-0.5c0.2,0.2,0.4,0.4,0.6,0.5s0.5,0.2,0.8,0.2s0.5,0,0.7-0.1s0.3-0.2,0.4-0.3s0.2-0.3,0.2-0.5s0.1-0.4,0.1-0.6V532l0,0
		c-0.2,0.2-0.4,0.4-0.6,0.5s-0.5,0.2-0.8,0.2s-0.6,0-0.8-0.1c-0.2-0.1-0.5-0.2-0.6-0.4c-0.2-0.2-0.3-0.4-0.4-0.6
		c-0.1-0.2-0.1-0.5-0.1-0.8s0-0.6,0.1-0.8c0.1-0.3,0.2-0.5,0.4-0.6s0.4-0.3,0.6-0.4c0.3-0.1,0.5-0.1,0.8-0.1s0.5,0.1,0.8,0.2
		s0.4,0.3,0.6,0.6l0,0V529h0.6L426.3,532.5L426.3,532.5z M422.9,530.7c0,0.2,0,0.4,0.1,0.5c0.1,0.2,0.2,0.3,0.3,0.4
		c0.1,0.1,0.3,0.2,0.4,0.3s0.3,0.1,0.5,0.1s0.4,0,0.6-0.1s0.3-0.2,0.4-0.3s0.2-0.3,0.3-0.4c0.1-0.2,0.1-0.3,0.1-0.5s0-0.4-0.1-0.6
		s-0.2-0.3-0.3-0.4c-0.1-0.1-0.3-0.2-0.4-0.3s-0.4-0.1-0.6-0.1s-0.4,0-0.6,0.1s-0.3,0.2-0.4,0.3s-0.2,0.3-0.3,0.5
		C423,530.3,422.9,530.5,422.9,530.7z"/>
	<path class="st2" d="M427.4,529.3c0.2-0.2,0.4-0.3,0.7-0.4c0.3-0.1,0.5-0.1,0.8-0.1c0.6,0,1,0.1,1.2,0.4s0.4,0.7,0.4,1.2v1.7
		c0,0.1,0,0.2,0,0.3s0,0.2,0,0.3H430c0-0.1,0-0.2,0-0.3s0-0.2,0-0.3l0,0c-0.1,0.2-0.3,0.4-0.5,0.5s-0.5,0.2-0.8,0.2
		c-0.2,0-0.4,0-0.5-0.1s-0.3-0.1-0.5-0.2s-0.2-0.2-0.3-0.4s-0.1-0.3-0.1-0.5c0-0.3,0.1-0.6,0.2-0.7c0.2-0.2,0.4-0.3,0.6-0.4
		s0.5-0.1,0.8-0.2c0.3,0,0.5,0,0.8,0h0.3v-0.1c0-0.3-0.1-0.5-0.3-0.6s-0.4-0.2-0.7-0.2c-0.2,0-0.4,0-0.6,0.1s-0.4,0.2-0.5,0.3
		L427.4,529.3z M429.3,530.8c-0.4,0-0.7,0.1-1,0.2c-0.2,0.1-0.4,0.3-0.4,0.6c0,0.2,0.1,0.4,0.2,0.5c0.2,0.1,0.4,0.2,0.6,0.2
		s0.4,0,0.5-0.1s0.3-0.1,0.3-0.3c0.1-0.1,0.2-0.2,0.2-0.4c0-0.1,0.1-0.3,0.1-0.4v-0.2L429.3,530.8L429.3,530.8z"/>
	<path class="st2" d="M431.7,529.7c0-0.2,0-0.3,0-0.5s0-0.3,0-0.4h0.6c0,0.1,0,0.2,0,0.3s0,0.2,0,0.3l0,0c0-0.1,0.1-0.2,0.2-0.3
		s0.2-0.2,0.3-0.2s0.2-0.1,0.4-0.2c0.1,0,0.3-0.1,0.4-0.1c0.3,0,0.5,0,0.7,0.1s0.3,0.2,0.5,0.3s0.2,0.3,0.3,0.5
		c0.1,0.2,0.1,0.4,0.1,0.6v2.4h-0.6v-2.3c0-0.3-0.1-0.6-0.2-0.8s-0.4-0.3-0.7-0.3c-0.2,0-0.4,0-0.5,0.1c-0.2,0.1-0.3,0.2-0.4,0.3
		s-0.2,0.3-0.2,0.5s-0.1,0.4-0.1,0.6v1.9h-0.6v-2.8H431.7z"/>
	<path class="st2" d="M436.2,527.3c0-0.1,0-0.2,0.1-0.3s0.2-0.1,0.3-0.1c0.1,0,0.2,0,0.3,0.1c0.1,0.1,0.1,0.2,0.1,0.3s0,0.2-0.1,0.3
		s-0.2,0.1-0.3,0.1c-0.1,0-0.3,0-0.3-0.1C436.2,527.6,436.2,527.5,436.2,527.3z M436.3,528.8h0.6v3.8h-0.6V528.8z"/>
	<path class="st2" d="M437.9,532.2l2.3-2.8H438v-0.5h3v0.5l-2.3,2.8h2.3v0.5h-3.1V532.2z"/>
	<path class="st2" d="M441.8,529.3c0.2-0.2,0.4-0.3,0.7-0.4c0.3-0.1,0.5-0.1,0.8-0.1c0.6,0,1,0.1,1.2,0.4s0.4,0.7,0.4,1.2v1.7
		c0,0.1,0,0.2,0,0.3s0,0.2,0,0.3h-0.6c0-0.1,0-0.2,0-0.3s0-0.2,0-0.3l0,0c-0.1,0.2-0.3,0.4-0.5,0.5s-0.5,0.2-0.8,0.2
		c-0.2,0-0.4,0-0.5-0.1s-0.3-0.1-0.5-0.2s-0.2-0.2-0.3-0.4s-0.1-0.3-0.1-0.5c0-0.3,0.1-0.6,0.2-0.7c0.2-0.2,0.4-0.3,0.6-0.4
		s0.5-0.1,0.8-0.2c0.3,0,0.5,0,0.8,0h0.3v-0.1c0-0.3-0.1-0.5-0.3-0.6s-0.4-0.2-0.7-0.2c-0.2,0-0.4,0-0.6,0.1s-0.4,0.2-0.5,0.3
		L441.8,529.3z M443.7,530.8c-0.4,0-0.7,0.1-1,0.2c-0.2,0.1-0.4,0.3-0.4,0.6c0,0.2,0.1,0.4,0.2,0.5c0.2,0.1,0.4,0.2,0.6,0.2
		s0.4,0,0.5-0.1s0.3-0.1,0.3-0.3c0.1-0.1,0.2-0.2,0.2-0.4c0-0.1,0.1-0.3,0.1-0.4v-0.2L443.7,530.8L443.7,530.8z"/>
	<path class="st2" d="M448.2,529.4h-1.1v1.9c0,0.1,0,0.2,0,0.3s0,0.2,0.1,0.3c0,0.1,0.1,0.1,0.2,0.2c0.1,0,0.2,0.1,0.3,0.1
		c0.1,0,0.2,0,0.3,0c0.1,0,0.2-0.1,0.3-0.1v0.6c-0.1,0-0.2,0.1-0.4,0.1c-0.1,0-0.3,0-0.4,0c-0.2,0-0.4,0-0.5-0.1s-0.2-0.1-0.3-0.3
		c-0.1-0.1-0.1-0.2-0.2-0.4c0-0.2,0-0.3,0-0.5v-2.1h-0.8v-0.5h0.8v-1.1h0.6v1.1h1.1V529.4z"/>
	<path class="st2" d="M448.9,527.3c0-0.1,0-0.2,0.1-0.3s0.2-0.1,0.3-0.1c0.1,0,0.2,0,0.3,0.1c0.1,0.1,0.1,0.2,0.1,0.3s0,0.2-0.1,0.3
		s-0.2,0.1-0.3,0.1c-0.1,0-0.3,0-0.3-0.1C449,527.6,448.9,527.5,448.9,527.3z M449.1,528.8h0.6v3.8h-0.6V528.8z"/>
	<path class="st2" d="M450.8,530.7c0-0.3,0.1-0.6,0.2-0.8s0.2-0.5,0.4-0.6c0.2-0.2,0.4-0.3,0.6-0.4c0.3-0.1,0.5-0.1,0.8-0.1
		s0.6,0,0.8,0.1c0.3,0.1,0.5,0.2,0.6,0.4c0.2,0.2,0.3,0.4,0.4,0.6c0.1,0.2,0.2,0.5,0.2,0.8s-0.1,0.6-0.2,0.8s-0.2,0.5-0.4,0.6
		c-0.2,0.2-0.4,0.3-0.6,0.4c-0.3,0.1-0.5,0.2-0.8,0.2s-0.6-0.1-0.8-0.2c-0.3-0.1-0.5-0.2-0.6-0.4c-0.2-0.2-0.3-0.4-0.4-0.6
		C450.8,531.3,450.8,531,450.8,530.7z M451.5,530.7c0,0.2,0,0.4,0.1,0.6c0.1,0.2,0.2,0.3,0.3,0.5s0.3,0.2,0.4,0.3
		c0.2,0.1,0.4,0.1,0.6,0.1s0.4,0,0.6-0.1s0.3-0.2,0.4-0.3s0.2-0.3,0.3-0.5c0.1-0.2,0.1-0.4,0.1-0.6c0-0.2,0-0.4-0.1-0.6
		c-0.1-0.2-0.2-0.3-0.3-0.5c-0.1-0.1-0.3-0.2-0.4-0.3c-0.2-0.1-0.4-0.1-0.6-0.1s-0.4,0-0.6,0.1s-0.3,0.2-0.4,0.3s-0.2,0.3-0.3,0.5
		C451.5,530.3,451.5,530.5,451.5,530.7z"/>
	<path class="st2" d="M455.8,529.7c0-0.2,0-0.3,0-0.5s0-0.3,0-0.4h0.6c0,0.1,0,0.2,0,0.3s0,0.2,0,0.3l0,0c0-0.1,0.1-0.2,0.2-0.3
		s0.2-0.2,0.3-0.2s0.2-0.1,0.4-0.2c0.1,0,0.3-0.1,0.4-0.1c0.3,0,0.5,0,0.7,0.1s0.3,0.2,0.5,0.3s0.2,0.3,0.3,0.5
		c0.1,0.2,0.1,0.4,0.1,0.6v2.4h-0.6v-2.3c0-0.3-0.1-0.6-0.2-0.8s-0.4-0.3-0.7-0.3c-0.2,0-0.4,0-0.5,0.1c-0.2,0.1-0.3,0.2-0.4,0.3
		s-0.2,0.3-0.2,0.5s-0.1,0.4-0.1,0.6v1.9H456v-2.8H455.8z"/>
	<path class="st2" d="M461.8,531.9l2.2-2.1c0.1-0.1,0.3-0.3,0.4-0.4c0.1-0.1,0.2-0.2,0.3-0.3c0.1-0.1,0.1-0.2,0.2-0.3
		c0-0.1,0.1-0.2,0.1-0.4s0-0.3-0.1-0.4c-0.1-0.1-0.1-0.2-0.2-0.3s-0.2-0.1-0.3-0.2c-0.1,0-0.3-0.1-0.4-0.1c-0.3,0-0.5,0.1-0.7,0.3
		s-0.3,0.4-0.4,0.7l-0.7-0.1c0-0.2,0.1-0.4,0.2-0.6c0.1-0.2,0.2-0.3,0.4-0.5c0.2-0.1,0.3-0.2,0.5-0.3s0.4-0.1,0.7-0.1s0.5,0,0.7,0.1
		s0.4,0.2,0.6,0.3s0.3,0.3,0.4,0.5s0.1,0.4,0.1,0.7c0,0.2,0,0.4-0.1,0.6c-0.1,0.2-0.1,0.4-0.3,0.5c-0.1,0.2-0.2,0.3-0.4,0.4
		s-0.3,0.3-0.4,0.4l-1.8,1.7l0,0h3v0.6h-3.7v-0.7H461.8z"/>
	<path class="st2" d="M466.3,529.8c0-0.3,0-0.7,0.1-1c0.1-0.4,0.2-0.7,0.3-1c0.1-0.3,0.3-0.5,0.6-0.7c0.3-0.2,0.6-0.3,1-0.3
		s0.7,0.1,1,0.3s0.5,0.4,0.6,0.7s0.3,0.6,0.3,1s0.1,0.7,0.1,1s0,0.7-0.1,1c-0.1,0.4-0.2,0.7-0.3,1c-0.1,0.3-0.3,0.5-0.6,0.7
		c-0.3,0.2-0.6,0.3-1,0.3s-0.7-0.1-1-0.3s-0.5-0.4-0.6-0.7s-0.2-0.6-0.3-1C466.3,530.4,466.3,530.1,466.3,529.8z M466.9,529.8
		c0,0.1,0,0.3,0,0.5s0,0.3,0.1,0.5c0,0.2,0.1,0.4,0.1,0.5c0.1,0.2,0.1,0.3,0.2,0.5c0.1,0.1,0.2,0.2,0.3,0.3c0.1,0.1,0.3,0.1,0.5,0.1
		s0.4,0,0.5-0.1s0.3-0.2,0.3-0.3c0.1-0.1,0.2-0.3,0.2-0.5s0.1-0.3,0.1-0.5s0.1-0.4,0.1-0.5c0-0.2,0-0.3,0-0.5c0-0.1,0-0.3,0-0.5
		s0-0.4-0.1-0.5c0-0.2-0.1-0.4-0.1-0.5c-0.1-0.2-0.1-0.3-0.2-0.5s-0.2-0.2-0.3-0.3s-0.3-0.1-0.5-0.1s-0.4,0-0.5,0.1
		s-0.3,0.2-0.3,0.3c-0.1,0.1-0.2,0.3-0.2,0.5c-0.1,0.2-0.1,0.3-0.1,0.5s-0.1,0.4-0.1,0.5C467,529.5,466.9,529.6,466.9,529.8z"/>
	<path class="st2" d="M470.9,531.9l2.2-2.1c0.1-0.1,0.3-0.3,0.4-0.4c0.1-0.1,0.2-0.2,0.3-0.3c0.1-0.1,0.1-0.2,0.2-0.3
		c0-0.1,0.1-0.2,0.1-0.4s0-0.3-0.1-0.4c-0.1-0.1-0.1-0.2-0.2-0.3s-0.2-0.1-0.3-0.2c-0.1,0-0.3-0.1-0.4-0.1c-0.3,0-0.5,0.1-0.7,0.3
		s-0.3,0.4-0.4,0.7l-0.7-0.1c0-0.2,0.1-0.4,0.2-0.6c0.1-0.2,0.2-0.3,0.4-0.5c0.2-0.1,0.3-0.2,0.5-0.3s0.4-0.1,0.7-0.1s0.5,0,0.7,0.1
		s0.4,0.2,0.6,0.3s0.3,0.3,0.4,0.5s0.1,0.4,0.1,0.7c0,0.2,0,0.4-0.1,0.6c-0.1,0.2-0.1,0.4-0.3,0.5c-0.1,0.2-0.2,0.3-0.4,0.4
		s-0.3,0.3-0.4,0.4l-1.8,1.7l0,0h3v0.6h-3.7v-0.7H470.9z"/>
	<path class="st2" d="M478,532.7h-0.7v-4.9l0,0l-1,0.9l-0.4-0.5l1.6-1.3h0.6v5.8H478z"/>
</g>
<g>
	<g>
		<g>
			<path class="st0" d="M369.2,231.4c-18.6,0-35,9.5-44.8,23.6h5.8c9.1-11.6,23.1-18.9,39-18.9c27.5,0,49.7,22.2,49.7,49.7
				s-22.4,49.7-49.7,49.7s-49.7-22.2-49.7-49.7c0-2.3,0.2-4.7,0.5-7h-4.7c-0.4,2.3-0.5,4.6-0.5,7c0,30.1,24.3,54.4,54.4,54.4
				s54.4-24.3,54.4-54.4S399.1,231.4,369.2,231.4z"/>
			<circle class="st1" cx="327.5" cy="255.4" r="6.1"/>
			<circle class="st1" cx="317.5" cy="279" r="6.1"/>
		</g>
		<g>
			<path class="st0" d="M346.8,273.8h8.4c1.4,0,2.8,0.2,4,0.7c1.4,0.4,2.5,1.1,3.5,1.9c1.1,0.9,1.8,1.9,2.5,3.3
				c0.5,1.4,0.9,3,0.9,4.7c0,1.8-0.4,3.5-1.1,4.7c-0.7,1.4-1.6,2.5-2.6,3.3s-2.3,1.6-3.7,1.9c-1.4,0.4-2.6,0.7-4,0.7h-8.1
				L346.8,273.8L346.8,273.8z M353.4,291.8c1.2,0,2.3-0.2,3.3-0.4c1.1-0.4,1.9-0.7,2.8-1.2s1.4-1.4,1.9-2.3s0.7-2.1,0.7-3.3
				c0-1.2-0.2-2.5-0.5-3.3c-0.4-0.9-1.1-1.8-1.8-2.3c-0.7-0.5-1.6-1.1-2.6-1.2c-1.1-0.4-2.1-0.4-3.2-0.4h-3.5V292L353.4,291.8
				L353.4,291.8z"/>
			<path class="st0" d="M326.5,273.8h7.5c1.1,0,2.1,0.2,3,0.4c0.9,0.2,1.8,0.5,2.6,1.1c0.7,0.5,1.4,1.1,1.8,1.9
				c0.5,0.9,0.7,1.8,0.7,3c0,1.6-0.4,3-1.2,3.9c-0.9,1.1-2.1,1.8-3.7,1.9l5.8,9.5h-4.7l-4.9-9.1h-2.8v9.1h-4L326.5,273.8
				L326.5,273.8z M333.3,282.9c0.5,0,1.1,0,1.6,0s1.1-0.2,1.6-0.4s0.9-0.5,1.1-0.9c0.4-0.4,0.4-0.9,0.4-1.6s-0.2-1.1-0.4-1.6
				c-0.2-0.4-0.5-0.7-1.1-0.9c-0.4-0.2-0.9-0.4-1.4-0.4s-1.1-0.2-1.6-0.2h-3.3v5.8C330.1,282.9,333.3,282.9,333.3,282.9z"/>
			<path class="st1" d="M370.2,273.8h5.8l5.8,15.1l5.8-15.1h5.8v21.5h-3.7v-17.9l0,0l-6.5,17.9h-2.6l-6.5-17.9l0,0v17.9h-3.9
				L370.2,273.8L370.2,273.8z"/>
			<path class="st1" d="M408.9,278.3c-0.4-0.5-0.9-1.1-1.6-1.2c-0.7-0.4-1.4-0.4-2.3-0.4c-0.5,0-0.9,0-1.2,0.2
				c-0.4,0.2-0.9,0.4-1.1,0.5c-0.4,0.2-0.5,0.5-0.9,0.9c-0.2,0.4-0.4,0.7-0.4,1.2c0,0.7,0.2,1.2,0.7,1.8c0.5,0.4,1.1,0.7,1.9,1.1
				c0.7,0.4,1.6,0.5,2.5,0.9s1.8,0.7,2.5,1.1c0.7,0.5,1.4,1.1,1.9,1.9c0.5,0.7,0.7,1.8,0.7,3.2c0,1.2-0.2,2.1-0.7,3
				c-0.4,0.9-1.1,1.6-1.8,2.1c-0.7,0.5-1.6,1.1-2.5,1.2c-0.9,0.4-1.9,0.4-3,0.4c-1.4,0-2.6-0.2-3.9-0.7c-1.2-0.5-2.3-1.2-3.2-2.3
				l3-2.8c0.5,0.7,1.1,1.2,1.8,1.6c0.7,0.4,1.6,0.5,2.5,0.5c0.5,0,0.9,0,1.4-0.2s0.9-0.4,1.2-0.5c0.4-0.2,0.7-0.5,0.9-0.9
				c0.2-0.4,0.4-0.9,0.4-1.2c0-0.9-0.2-1.4-0.7-1.8s-1.1-0.7-1.9-1.1c-0.7-0.4-1.6-0.5-2.5-0.9c-0.9-0.2-1.8-0.7-2.5-1.1
				c-0.7-0.5-1.4-1.1-1.9-1.8c-0.5-0.7-0.7-1.8-0.7-3c0-1.1,0.2-2.1,0.7-2.8c0.5-0.9,1.1-1.4,1.8-2.1c0.7-0.5,1.6-0.9,2.5-1.2
				c0.9-0.4,1.9-0.4,3-0.4c1.2,0,2.3,0.2,3.3,0.5c1.1,0.4,1.9,0.9,2.8,1.8L408.9,278.3z"/>
		</g>
	</g>
	<polyline class="st3" points="327.5,320.9 264.9,346.5 152.9,346.5 	"/>
	<circle class="st4" cx="148.6" cy="346.5" r="30.9"/>
	<g>
		<path class="st5" d="M161.6,366.3c0-13.6,0-27,0-40.5c-8.6,0-17.2,0-25.9,0c0,13.5,0,27,0,40.5
			C144.3,366.3,152.9,366.3,161.6,366.3z"/>
		<path class="st5" d="M135.7,367.3c-0.2,2.4,0.1,2.8,2.3,2.8c7.1,0,14.2,0,21.2,0c2,0,2.5-0.6,2.1-2.8
			C152.9,367.3,144.4,367.3,135.7,367.3z M148.6,367.7c0.5,0,1,0,1.4,0c0.7,0,1.1,0.3,0.9,0.9c-0.1,0.4-0.5,0.9-0.9,0.9
			c-0.9,0.1-1.9,0-2.9,0.1c-0.7,0-1.1-0.3-1-1c0.1-0.4,0.6-0.7,0.9-0.9C147.6,367.6,148.1,367.7,148.6,367.7z"/>
		<path class="st5" d="M135.7,324.8c8.6,0,17.2,0,25.8,0c0-1.3-0.8-1.6-1.9-1.6c-4.4,0-8.8,0-13.2,0c-3,0-6,0-9,0
			C136.4,323.2,135.7,323.5,135.7,324.8z M148.6,323.3c0.7,0.3,1.2,0.5,1.8,0.8c-0.6,0.2-1.2,0.5-1.8,0.5s-1.2-0.3-1.8-0.5
			C147.4,323.8,147.9,323.5,148.6,323.3z"/>
	</g>
	<polyline class="st3" points="346.6,236.3 304.4,194.2 192.9,194.2 	"/>
	<circle class="st4" cx="177.6" cy="194.2" r="30.9"/>
	<polyline class="st3" points="409.1,320.8 437.6,349.3 525.9,349.3 	"/>
	<polyline class="st3" points="396.3,240.8 424.8,212.3 513.1,212.3 	"/>
	
		<ellipse transform="matrix(0.1602 -0.9871 0.9871 0.1602 96.8706 812.4577)" class="st4" cx="525.9" cy="349.3" rx="30.9" ry="30.9"/>
	
		<ellipse transform="matrix(0.1602 -0.9871 0.9871 0.1602 236.8885 703.029)" class="st4" cx="531.6" cy="212.3" rx="30.9" ry="30.9"/>
	<g>
		<path class="st5" d="M536.3,346c0,1.9,0,3.8,0,5.6c0,1.2,0,1.2-1.1,1.2s-2.2,0-3.3,0c-0.3,1-0.5,1.1-1.3,0.5
			c-0.4-0.3-0.8-0.5-1.1-0.8c-0.6-0.4-0.6-0.8,0-1.2c0.4-0.3,0.8-0.6,1.2-0.9c0.2-0.1,0.7-0.3,0.8-0.2c0.6,1.2,1.7,0.4,2.6,0.7
			c0-1.4,0-2.7,0-3.9c0-1.3,0.1-1.4,1.3-1.3c0.2,0,0.3,0,0.7,0c-1.8-1.5-2.7-3.2-2.6-5.4c0.1-1.4,0.6-2.6,1.6-3.7
			c1.9-2.1,4.9-2.5,7.4-1c2.2,1.3,3.4,4.2,2.6,6.7c-0.5,1.9-1.7,3.2-3.5,3.9C539.9,346.9,538.1,346.4,536.3,346z M539.4,345.4
			c2.6,0,4.8-2.1,4.8-4.7s-2.1-4.8-4.7-4.8c-2.6,0-4.7,2.1-4.7,4.8C534.7,343.2,536.8,345.3,539.4,345.4z"/>
		<path class="st5" d="M520.7,360.2c0.3,0.1,0.6,0.2,1,0.3c-0.7,0.7-1.3,1.4-2,2.1c0.4,0,0.7,0.1,1,0.1c1.9,0,3.9,0,5.8,0
			c0.6,0,0.8,0.1,0.8,0.7c0,2.5,0,5.1,0,7.6c0,0.5-0.2,0.7-0.7,0.7c-4.7,0-9.4,0-14,0c-0.6,0-0.8-0.2-0.8-0.8c0-2.5,0-5,0-7.5
			c0-0.7,0.3-0.8,0.9-0.8c1.9,0,3.9,0,5.8,0c0.3,0,0.5,0,1,0c-0.7-0.8-1.4-1.4-2.1-2.2c1,0,1-0.6,1-1.2c0-1.2,0-2.4,0-3.6
			c0-0.6,0.2-0.8,0.8-0.8c0.2,0,0.4,0,0.7,0c0.6-0.1,0.8,0.2,0.8,0.8c0,1.2,0,2.5,0,3.7C520.7,359.6,520.7,359.9,520.7,360.2z
			 M519.5,370.6L519.5,370.6c2,0,4,0,6.1,0c0.6,0,0.9-0.1,0.9-0.8c0-1.8,0-3.5,0-5.3c0-0.5-0.1-0.7-0.7-0.7c-4.1,0-8.2,0-12.3,0
			c-0.5,0-0.7,0.2-0.7,0.7c0,1.7,0,3.5,0,5.2c0,0.7,0.2,0.9,0.9,0.9C515.6,370.6,517.5,370.6,519.5,370.6z"/>
		<path class="st5" d="M527.3,354.3c-0.3,0-0.5,0.1-0.7,0.1c-4.7,0-9.3,0-14,0c-0.6,0-0.8-0.2-0.8-0.8c0-2.5,0-4.9,0-7.4
			c0-0.6,0.1-0.9,0.8-0.9c4.6,0,9.2,0,13.8,0c0.7,0,1,0.2,1,0.9c0,2.4,0,4.8,0,7.2C527.3,353.7,527.3,354,527.3,354.3z M519.5,353.3
			L519.5,353.3c2,0,4,0,6.1,0c0.6,0,0.8-0.1,0.8-0.8c0-1.8,0-3.5,0-5.3c0-0.6-0.2-0.8-0.7-0.8c-4,0-8.1,0-12.1,0
			c-0.6,0-0.8,0.2-0.8,0.8c0,1.8,0,3.5,0,5.3c0,0.6,0.2,0.8,0.7,0.8C515.5,353.3,517.5,353.3,519.5,353.3z"/>
		<path class="st5" d="M519.5,335.8c-2.3,0-4.5,0-6.8,0c-0.7,0-1-0.2-1-0.9c0-2.4,0-4.8,0-7.2c0-0.7,0.2-0.9,0.9-0.9
			c4.6,0,9.2,0,13.8,0c0.6,0,0.8,0.2,0.8,0.8c0,2.5,0,4.9,0,7.4c0,0.6-0.2,0.9-0.8,0.9C524.2,335.8,521.9,335.8,519.5,335.8z
			 M519.5,334.7c2,0,4,0,6.1,0c0.6,0,0.8-0.2,0.8-0.8c0-1.7,0-3.5,0-5.2c0-0.6-0.2-0.8-0.8-0.8c-4,0-8.1,0-12.1,0
			c-0.6,0-0.8,0.2-0.8,0.8c0,1.8,0,3.5,0,5.3c0,0.7,0.3,0.8,0.8,0.8C515.6,334.7,517.5,334.7,519.5,334.7z"/>
		<path class="st5" d="M536.6,333.5c-0.6,0.8-1,1.4-1.4,2c-0.2,0.3-0.5,0.4-0.8,0.1c-0.5-0.6-0.9-1.2-1.4-1.9
			c0.8-0.6,0.9-0.9,0.6-2.9c-1.3,0-2.5,0-3.8,0s-1.4-0.1-1.2-1.3c0-0.2,0.4-0.6,0.6-0.6c2,0,3.9,0,5.9,0c0.5,0,0.7,0.2,0.7,0.7
			c0,1,0,1.9,0,2.9C535.8,332.9,535.7,333.5,536.6,333.5z"/>
		<path class="st5" d="M517.4,343c0.5-0.1,0.7-0.2,1-0.2c0-1.6,0-3.2,0-4.7c0-0.6,0.2-0.8,0.8-0.8c1.9,0.1,1.5-0.3,1.6,1.6
			c0,1,0,2,0,3c0,0.6,0,1.2,1.1,1.1c-0.8,0.8-1.4,1.4-2,2c-0.1,0.1-0.4,0-0.4,0C518.7,344.3,518.1,343.7,517.4,343z"/>
	</g>
	<g>
		<path class="st5" d="M177.7,175.7c6.4,0,12.8,0,19.2,0c1.1,0,1.4,0.3,1.4,1.4c0,10.2,0,20.4,0,30.6c0,0.9-0.3,1.3-1.3,1.3
			c-12.9,0-25.8,0-38.7,0c-0.9,0-1.3-0.3-1.3-1.3c0-10.2,0-20.5,0-30.7c0-1.1,0.4-1.3,1.4-1.3C164.9,175.7,171.3,175.7,177.7,175.7
			L177.7,175.7z M159.6,202.3c0.4,0,0.7,0.1,0.9,0.1c11.4,0,22.8,0,34.2,0c1.1,0,1.2-0.5,1.2-1.4c0-7,0-14.1,0-21.1
			c0-1.2-0.4-1.4-1.5-1.4c-11.1,0-22.2,0-33.3,0c-1.3,0-1.7,0.3-1.7,1.6c0.1,7,0,13.9,0,20.9C159.5,201.3,159.6,201.7,159.6,202.3z
			 M179.6,205.9c0-1-0.9-1.9-1.9-1.9c-0.9,0-1.8,0.9-1.9,1.8c0,0.9,0.9,1.9,1.8,2C178.6,207.8,179.5,206.9,179.6,205.9z"/>
		<path class="st5" d="M167.8,213c1.3-0.3,2.6-0.6,3.9-0.9c0.9-0.2,1.3-0.6,1.2-1.5c-0.2-1,0.2-1.4,1.3-1.4c2.3,0.1,4.6,0.1,7,0
			c1.1,0,1.4,0.4,1.3,1.4c-0.2,1.1,0.4,1.4,1.3,1.6c1.2,0.2,2.4,0.5,3.7,0.8c0,0.1,0,0.2-0.1,0.3c-6.5,0-13,0-19.5,0
			C167.9,213.2,167.8,213.1,167.8,213z"/>
		<path class="st5" d="M167,213.8c0.7-0.1,1.2-0.1,1.6-0.1c6.1,0,12.2,0,18.3,0c0.4,0,0.8,0.3,1.2,0.4c-0.4,0.3-0.7,0.7-1.1,0.9
			c-0.5,0.2-1.1,0.3-1.6,0.3c-5.3,0-10.6,0-15.8,0C168.6,215.2,167.7,215.1,167,213.8z"/>
	</g>
	<g>
		<path class="st5" d="M524.1,214.3c-1.3-0.5-1.9,0.3-2.4,1.5c-1,2.1-2.2,4.2-3.3,6.3c-0.3,0.6-0.7,0.8-1.4,0.4
			c-1.6-0.9-3.3-1.8-4.9-2.6c-0.6-0.3-0.7-0.6-0.4-1.2c1.3-2.4,2.6-4.8,3.9-7.2c0.3-0.6,0.3-0.9-0.1-1.5c-3.1-3.7-3.5-9.1-1.2-13.3
			c2.4-4.2,7.2-6.6,12-5.9c4.9,0.7,8.8,4.4,9.8,9.1C537.8,207.4,531.9,214.6,524.1,214.3z M516.6,202.5c0,4.5,3.7,8.1,8,8
			c4.5-0.1,8.2-3.7,8.1-8.1c-0.1-4.5-3.7-8.1-8.3-8C520.1,194.5,516.5,198.2,516.6,202.5z"/>
		<path class="st5" d="M552.2,210.5c-1.6,0-3.1-0.1-4.7,0c-1.1,0.1-1.6-0.3-1.9-1.3c-0.8-2.7-1.6-5.3-2.4-8c-0.2-0.5-0.2-1.1-1-1.1
			c-0.7,0-1.1,0.1-1.1,0.9c-0.3,4.1-0.7,8.2-1.1,12.3c-0.3,3.3-0.6,6.6-0.8,9.9c-0.2,3-0.5,6-0.7,9.1c-0.1,1.1-0.2,2.2-0.2,3.3
			c0,0.6-0.3,0.9-0.9,0.9c-2.2,0-4.4,0-6.7,0c-0.8,0-0.8-0.6-0.9-1c-0.4-2-0.8-4-1.1-5.9c-0.2-1.3-0.5-2.6-0.7-3.8
			c-0.1-0.8-0.5-1-1.2-1c-2.1,0-4.2,0-6.3,0c-0.9,0-1.3-0.2-1.3-1.1c0-1.3,0.1-1.4,1.2-1.4c2.9,0,5.7,0,8.6-0.1c1,0,1,0.7,1.1,1.3
			c0.4,2.2,0.8,4.4,1.1,6.5c0.2,1.1,0.4,2.2,0.5,3.3c0.1,0.7,0.4,1,1.1,1c2.3,0,2.4,0,2.6-2.2c0.5-4.4,0.8-8.9,1.2-13.3
			c0.5-5.7,1.1-11.5,1.6-17.2c0.1-1,0.2-2,0.3-3c0-0.6,0.3-0.9,0.9-0.8c1.3,0,2.7,0,4,0c0.7,0,1,0.3,1.2,0.9
			c0.9,2.9,1.8,5.7,2.6,8.6c0.2,0.7,0.5,0.9,1.1,0.9c2.7,0,5.5,0,8.2,0c1.6,0,1.6,0,1.6,1.2c0,1.4,0,1.4-1.6,1.4
			C555.3,210.6,553.7,210.5,552.2,210.5z"/>
		<path class="st5" d="M517.5,223.5c-0.2,0.4-0.2,0.5-0.3,0.6c-0.6,1.1-1.2,2.2-1.7,3.3c-0.3,0.6-0.6,0.6-1.2,0.3
			c-1.7-0.9-3.4-1.9-5.2-2.8c-0.4-0.2-0.6-0.4-0.3-0.9c0.6-1.2,1.2-2.4,1.9-3.5c0.1-0.2,0.6-0.4,0.8-0.3c1.8,0.9,3.6,1.9,5.4,2.9
			C517.2,223.3,517.4,223.4,517.5,223.5z"/>
	</g>
	<polyline class="st3" points="319.9,302.1 291.5,288 223.7,288 	"/>
	<circle class="st4" cx="202.9" cy="288" r="30.9"/>
	<g>
		<path class="st5" d="M218.1,295c3.3,0,6.5,0,9.7,0c0.9,0,0.6-0.7,0.7-1.2c0.1-0.6-0.1-1.1-0.9-1.1c-1.9,0-3.8,0-5.8,0
			c-1.2,0-2.4,0-3.7,0C218.1,293.6,218.1,294.2,218.1,295z"/>
		<path class="st5" d="M210.2,287.8c1.4,0,2.7,0,4.1,0c0.9,0,1-0.5,1-1.2s-0.1-1.2-1-1.2c-2.8,0-5.6,0-8.5,0c-0.8,0-1,0.3-1,1
			s0,1.3,1,1.3C207.3,287.7,208.7,287.8,210.2,287.8z"/>
		<path class="st5" d="M197,292.8c-1.4,0-2.8,0-4.1,0c-0.9,0-1,0.5-1,1.2s0.2,1.1,1,1.1c2.8,0,5.7,0,8.5,0c0.9,0,1-0.5,1-1.2
			s-0.1-1.1-1-1.1C199.9,292.8,198.5,292.8,197,292.8z"/>
		<path class="st5" d="M218.1,296.5c0,0.6,0,1,0,1.4c-0.1,0.6,0.2,0.9,0.9,0.9c2.9,0,5.8,0,8.7,0c0.3,0,0.8-0.5,0.8-0.8
			c0-0.5,0.4-1.4-0.5-1.4C224.7,296.5,221.4,296.5,218.1,296.5z"/>
		<path class="st5" d="M184.1,302.3c1.4,0,2.8,0,4.2,0c0.8,0,1-0.3,0.9-1c-0.1-0.6,0.1-1.3-0.9-1.3c-2.9,0-5.8,0-8.7,0
			c-0.9,0-0.8,0.6-0.8,1.2c0,0.7,0,1.1,0.9,1.1C181.2,302.3,182.7,302.3,184.1,302.3z"/>
		<path class="st5" d="M210.1,291.5c1.4,0,2.8,0,4.2,0c1,0,0.9-0.6,0.9-1.2c0-0.7-0.2-1-0.9-1c-2.9,0-5.7,0-8.6,0
			c-0.8,0-1,0.4-0.9,1.1c0,0.7,0.1,1.2,1,1.2C207.3,291.4,208.7,291.5,210.1,291.5L210.1,291.5z"/>
		<path class="st5" d="M184.1,298.8c1.4,0,2.8-0.1,4.1,0c0.9,0,1-0.5,1-1.2s-0.1-1.1-0.9-1.1c-2.8,0-5.6,0-8.4,0
			c-0.8,0-1.1,0.3-1.1,1.1c0,0.9,0.3,1.2,1.2,1.2C181.4,298.8,182.7,298.8,184.1,298.8L184.1,298.8z"/>
		<path class="st5" d="M210,302.1c1.5,0,2.9,0,4.4,0c0.9,0,0.9-0.4,0.9-1.1s-0.1-1.1-0.9-1.1c-2.9,0-5.7,0-8.6,0
			c-0.9,0-0.9,0.4-0.9,1.1s0.1,1.1,0.9,1.1C207.2,302,208.6,302.1,210,302.1L210,302.1z"/>
		<path class="st5" d="M184,275c-1.4,0-2.8,0-4.2,0c-0.8,0-0.9,0.4-0.9,1s0,1.2,0.9,1.2c2.9,0,5.8,0,8.7,0c0.8,0,0.8-0.5,0.8-1.1
			s0-1.1-0.8-1.1C186.9,275.1,185.5,275,184,275L184,275z"/>
		<path class="st5" d="M184.1,287.9c1.4,0,2.8,0,4.2,0c0.7,0,1-0.2,1-1c0-0.6,0.1-1.3-0.9-1.3c-2.8,0-5.7,0-8.5,0
			c-0.9,0-1,0.4-1,1.2c0,0.8,0.3,1.1,1.1,1.1C181.3,287.8,182.7,287.9,184.1,287.9L184.1,287.9z"/>
		<path class="st5" d="M223.3,291.6c1.4,0,2.8,0,4.2,0c0.9,0,1-0.4,1-1.2c0-0.8-0.1-1.1-1-1.1c-2.8,0.1-5.6,0-8.4,0
			c-0.9,0-1.1,0.3-1.1,1.1c0,0.8,0.1,1.2,1.1,1.2C220.5,291.5,221.9,291.6,223.3,291.6L223.3,291.6z"/>
		<path class="st5" d="M184.1,295.1c1.4,0,2.8,0,4.2,0c0.8,0,1-0.4,1-1.1s-0.1-1.2-1-1.2c-2.8,0-5.7,0-8.5,0c-0.9,0-0.9,0.4-0.9,1.1
			s0,1.2,1,1.2C181.2,295.1,182.6,295.1,184.1,295.1z"/>
		<path class="st5" d="M184.1,284.4c1.4,0,2.8,0,4.2,0c0.9,0,0.9-0.5,0.9-1.2c0-0.6,0-1.1-0.9-1.1c-2.9,0-5.8,0-8.7,0
			c-0.9,0-0.8,0.6-0.9,1.2c0,0.7,0.2,1,0.9,1C181.2,284.4,182.7,284.4,184.1,284.4L184.1,284.4z"/>
		<path class="st5" d="M209.9,296.4c-1.4,0-2.7,0-4.1,0c-0.9,0-1,0.5-1,1.2c0,0.8,0.3,1,1,1c2.8,0,5.6,0,8.5,0c0.8,0,1-0.3,1-1.1
			c0-0.7-0.1-1.2-1-1.2C212.8,296.5,211.4,296.4,209.9,296.4z"/>
		<path class="st5" d="M197.2,298.7c1.4,0,2.8,0,4.2,0c0.8,0,0.9-0.4,0.9-1.1s-0.1-1.1-0.9-1.1c-2.9,0-5.7,0-8.6,0
			c-0.9,0-0.9,0.4-0.9,1.1s0.1,1.1,0.9,1.1C194.3,298.7,195.7,298.7,197.2,298.7L197.2,298.7z"/>
		<path class="st5" d="M209.9,292.7c-1.4,0-2.8,0-4.2,0c-0.8,0-0.9,0.4-0.9,1s0,1.2,0.9,1.2c2.9,0,5.8,0,8.7,0
			c0.9,0,0.9-0.6,0.9-1.2s-0.1-1.1-0.9-1C212.9,292.7,211.4,292.7,209.9,292.7z"/>
		<path class="st5" d="M209.9,278.3c-1.3,0-2.7,0-4,0c-0.9,0-1.1,0.4-1.1,1.2c0,0.8,0.2,1.1,1,1.1c2.7-0.1,5.5-0.1,8.3,0
			c1,0,1.2-0.4,1.2-1.2c0-1-0.5-1.1-1.2-1.1C212.7,278.3,211.3,278.3,209.9,278.3L209.9,278.3z"/>
		<path class="st5" d="M197.2,302.2c1.4,0,2.8,0,4.2,0c0.8,0,1-0.4,1-1.1s-0.1-1.1-0.9-1.1c-2.9,0-5.7,0-8.6,0c-0.8,0-1,0.3-1,1.1
			c0,0.8,0.2,1.2,1,1.2C194.3,302.1,195.8,302.2,197.2,302.2z"/>
		<path class="st5" d="M223.2,300c-1.4,0-2.8,0-4.2,0c-0.9,0-0.9,0.5-0.9,1.1s0,1.1,0.9,1.1c2.9,0,5.7,0,8.6,0
			c0.9,0,0.9-0.5,0.9-1.1c0-0.7-0.1-1.1-0.9-1.1C226.1,300,224.6,300,223.2,300L223.2,300z"/>
		<path class="st5" d="M184.1,280.7c1.4,0,2.8,0,4.2,0c1,0,0.9-0.6,0.9-1.2c0-0.7-0.2-1-0.9-1c-2.9,0-5.7,0-8.6,0
			c-0.8,0-0.9,0.4-0.9,1s0,1.2,0.9,1.2C181.2,280.7,182.6,280.7,184.1,280.7L184.1,280.7z"/>
		<path class="st5" d="M184.1,291.6c1.4,0,2.8,0,4.2,0c0.8,0,0.9-0.4,0.9-1s0.1-1.2-0.8-1.2c-2.9,0-5.8,0-8.7,0
			c-0.9,0-0.8,0.6-0.8,1.2c-0.1,0.7,0.2,1,0.9,1C181.2,291.6,182.7,291.6,184.1,291.6z"/>
		<path class="st5" d="M210,282c-1.5,0-2.9,0-4.4,0c-0.7,0-0.8,0.4-0.8,1s-0.1,1.2,0.8,1.2c2.9,0,5.9,0,8.8,0c0.9,0,0.8-0.6,0.8-1.2
			c0-0.7-0.2-1-0.9-1C212.9,282,211.5,282,210,282z"/>
	</g>
	<polyline class="st3" points="418.5,300.3 433.2,288 470.9,288 	"/>
	<circle class="st4" cx="477.8" cy="288" r="30.9"/>
	<g>
		<path class="st5" d="M469.1,277.6c0.2-5.3,4.6-9.4,9.9-9.2c5.3,0.2,9.4,4.8,8.9,10.1c-0.2,1.9-1,3.9-1.7,5.6
			c-1.4,2.9-3.1,5.8-4.6,8.9c-0.7,1.2-1.2,2.7-2.2,3.9c-0.2,0.2-0.7,0.7-1,0.7c-0.2,0-1-0.2-1-0.7c-1.7-3.4-3.6-6.5-5.3-9.9
			c-1-2.2-1.9-4.6-2.7-7C469.4,279.5,469.1,278.6,469.1,277.6z M478.5,283.4c2.9,0,5.3-2.4,5.6-5.3c0-2.9-2.4-5.3-5.3-5.6
			c-2.9,0-5.3,2.4-5.3,5.3C473,281,475.4,283.1,478.5,283.4z"/>
	</g>
	<g>
		<path class="st5" d="M502.3,296.7c0,1.2-0.6,2.2-1.4,3s-1.8,1.4-2.7,2c-2,1.1-4.1,1.8-6.3,2.4c-4.3,1.2-8.9,1.6-13.4,1.6
			c-4.5-0.1-9-0.6-13.3-1.7c-2.2-0.6-4.3-1.2-6.3-2.2c-1-0.5-2-1.1-2.8-1.9s-1.5-1.8-1.6-3.1c0-1.2,0.7-2.3,1.5-3.2
			c0.8-0.8,1.8-1.5,2.8-2c2-1.1,4.2-1.8,6.4-2.3c4.4-1.1,8.9-1.5,13.4-1.5s9,0.5,13.4,1.6c2.2,0.6,4.3,1.3,6.3,2.4
			c1,0.5,1.9,1.2,2.7,2C501.6,294.5,502.3,295.5,502.3,296.7z M502.2,296.7c0-1.1-0.7-2.1-1.4-2.9c-0.8-0.7-1.7-1.4-2.7-1.8
			c-2-1-4.1-1.6-6.3-2c-4.3-0.9-8.8-1.2-13.2-1.3c-4.4,0-8.9,0.4-13.2,1.4c-2.1,0.5-4.3,1.2-6.2,2.1c-1,0.5-1.9,1.1-2.7,1.8
			c-0.8,0.7-1.4,1.6-1.4,2.7c0,1,0.6,2,1.3,2.8c0.8,0.8,1.7,1.4,2.7,1.9c2,1,4.1,1.7,6.3,2.2c4.3,1,8.8,1.3,13.2,1.2
			c4.4-0.1,8.9-0.4,13.2-1.3c2.2-0.5,4.3-1.1,6.3-2c1-0.5,1.9-1.1,2.7-1.8C501.5,298.8,502.2,297.8,502.2,296.7z"/>
	</g>
	<polyline class="st3" points="595.2,253.4 440.5,251.6 415.9,260.5 	"/>
	<circle class="st4" cx="594.6" cy="252.7" r="30.9"/>
	<g id="Group-9" transform="translate(78.327328, 13.238773)">
		<path class="st6" d="M528.8,233.9c2.2-2.9,6.2-3.4,9-1.2c0.7,0.5,1.2,1.1,1.6,1.8c0.2,0.4,0.1,0.8-0.3,1.1
			c-0.4,0.3-0.8,0.1-1.1-0.3c-0.3-0.5-0.7-1-1.2-1.4c-2.1-1.6-5.2-1.3-6.8,0.8l-0.1,0.1l-2.4,3.1c-3.7,4.9-9.9,7-15.9,5.5l-0.3-0.1
			l-1.9-0.5c-0.1,0-0.2-0.1-0.4-0.1c-3.5-0.8-7,1.4-7.7,4.9v0.2l-0.4,1.8c-0.1,0.6-0.4,1.2-0.8,1.8c-1.5,2.1-4.4,2.5-6.5,1
			c-0.3-0.3-0.4-0.7-0.2-1.1c0.2-0.4,0.7-0.4,1.1-0.2c1.4,1,3.3,0.7,4.4-0.7c0.2-0.3,0.4-0.7,0.5-1v-0.2l0.4-1.8
			c1-4.4,5.3-7.1,9.6-6.2l0.2,0.1l0.2,0.1l1.9,0.5c5.3,1.5,10.9-0.4,14.3-4.7l0.2-0.2L528.8,233.9z"/>
		<path class="st6" d="M521.9,233.1c1.6-3.5,5.7-5.1,9.1-3.5c0.7,0.3,1.3,0.7,1.9,1.3c1.3,1.2,2.5,3.2,3.7,5.9c0.2,0.4,0,0.8-0.4,1
			s-0.8,0-1-0.4c-1.1-2.5-2.2-4.3-3.3-5.4c-0.4-0.4-0.9-0.7-1.5-1c-2.7-1.2-5.8-0.1-7,2.6l-0.1,0.1l-0.5,1.1
			c-0.1,0.3-0.2,0.5-0.4,0.7c-1.8,2.9-5.7,3.8-8.5,2c-0.3-0.2-0.7-0.4-1.1-0.5c-2-0.4-3.9,0.7-4.4,2.7v0.1l-0.9,3.7
			c-0.3,1.1-0.8,2.2-1.6,3c-2.4,2.7-6.5,2.9-9.1,0.5l-0.1-0.1l-3.5-3.2c-0.3-0.3-0.3-0.8,0-1.1s0.7-0.3,1-0.1l0.1,0.1l3.5,3.2
			c2.1,1.9,5.3,1.8,7.1-0.3c0.6-0.6,1-1.3,1.2-2.1v-0.2l0.9-3.7c0.6-2.8,3.5-4.6,6.3-3.9c0.5,0.1,1,0.3,1.4,0.6l0.2,0.1
			c2.2,1.4,5.1,0.7,6.5-1.5c0.1-0.1,0.1-0.2,0.2-0.4l0.1-0.2L521.9,233.1z"/>
	</g>
</g>
<g>
	<path class="st5" d="M399.5,365.6l-0.6,2.4c-0.1,0-0.2,0.1-0.3,0.2c-0.7,1-1.7,1.4-2.8,1.8c-6,2.2-12,4.5-17.9,6.7
		c-2.4,0.9-4.1,0.4-5.6-1.8c-1-1.5-2.1-3-3-4.6c-0.2-0.4-0.6-0.6-1-0.7c-3-0.4-5.5-1.8-7.3-4.3c-0.6-0.8-1.3-1.7-1.9-2.5
		c-1.6-2-2.4-4.4-2.7-6.9c-0.1-1-0.6-1.8-1.3-2.5c-1.1-1-2.1-2-3.3-2.8c-3.1-2.3-3.1-6.2,0-8.6c1.4-1.1,3.1-1.6,4.9-1.7
		c0.8,0,0.9-0.1,0.6-0.9c-1.5-3.6-2.9-7.1-4.3-10.7c-0.7-1.7-1.1-3.5-1-5.4c0.2-5,5.5-6.6,8.5-5c1.7,0.9,2.8,2.2,3.7,3.9
		c1.2,2.3,2.3,4.5,3.5,6.8c0.3,0.6,0.6,0.8,1.3,0.6c1.8-0.5,3.5-0.4,5.2,0.4c0.3,0.2,0.6,0.1,0.9,0c2.2-1.1,4.5-1,6.6,0.1
		c0.3,0.2,0.7,0.3,1.1,0.1c2.7-0.9,5.1-0.2,7.2,1.5c2,1.6,3.3,3.6,4.4,5.8c1.9,3.9,3.1,8.1,3.6,12.3c0.3,2.3,0.1,4.5,0,6.8
		c-0.1,3,0.6,5.8,1.4,8.7C399.4,365.4,399.5,365.5,399.5,365.6z"/>
	<g>
		<path class="st0" d="M399,367.8c-0.1,0-0.2,0.1-0.3,0.2c-0.7,1-1.7,1.4-2.8,1.8c-6,2.2-11.9,4.5-17.9,6.7
			c-2.4,0.9-4.1,0.4-5.6-1.8c-1-1.5-2.1-3-3-4.6c-0.2-0.4-0.5-0.6-1-0.7c-3-0.4-5.5-1.8-7.3-4.3c-0.6-0.8-1.3-1.7-1.9-2.5
			c-1.5-2-2.4-4.4-2.7-6.9c-0.1-1-0.6-1.8-1.3-2.5c-1.1-1-2.1-2-3.3-2.8c-3.1-2.3-3.1-6.2,0-8.6c1.5-1.1,3.1-1.6,4.9-1.7
			c0.8,0,0.9-0.1,0.6-0.9c-1.5-3.5-2.9-7.1-4.3-10.7c-0.7-1.7-1.1-3.5-1-5.4c0.2-5,5.5-6.6,8.5-5c1.7,0.9,2.8,2.2,3.7,3.9
			c1.2,2.3,2.3,4.5,3.5,6.8c0.3,0.6,0.6,0.8,1.3,0.6c1.7-0.5,3.5-0.4,5.2,0.4c0.3,0.1,0.6,0.1,0.9,0c2.2-1.1,4.4-1,6.6,0.1
			c0.4,0.2,0.7,0.3,1.1,0.1c2.7-0.9,5.1-0.2,7.2,1.5c2,1.6,3.3,3.6,4.4,5.8c1.9,3.9,3,8,3.6,12.3c0.3,2.2,0.1,4.5,0,6.8
			c-0.1,3,0.6,5.8,1.4,8.7c0,0.1,0.1,0.1,0.2,0.2C399.4,366.3,399.2,367,399,367.8z M366.8,356.1c-0.1-0.2-0.2-0.5-0.3-0.7
			c-1.2-2.7-2.4-5.4-3.9-8c-1-1.7-2.4-2.6-4.1-3.1c-1.5-0.4-2.8-0.1-4.1,0.7c-0.7,0.5-0.9,1.3-0.2,1.8c1.6,1.3,3,2.8,4.5,4.2
			c0.9,0.8,1.4,1.8,1.7,2.9c0.2,0.6,0.3,1.3,0.4,1.9c0.3,1.5,0.8,2.9,1.7,4.1c0.7,1,1.5,2,2.3,3c1,1.3,2.5,2,4.1,2.2
			c0.7,0.1,1.3,0.2,2,0.3c0.6,0.1,1.1,0.4,1.4,1c1,2,2.2,3.8,3.5,5.7c0.3,0.4,0.5,0.4,1,0.3c5.9-2.2,11.9-4.5,17.9-6.7
			c0.6-0.2,0.7-0.5,0.5-1.1c-0.9-2.9-1.2-5.9-1.1-9c0.1-1.8,0.2-3.7,0-5.5c-0.4-3.5-1.3-6.9-2.7-10.1c-0.9-2.1-2-4.1-3.8-5.5
			c-1.4-1.2-2.7-1.3-4.3-0.4c-0.4,0.2-0.8,0.6-1.2,0.7c-0.5,0-0.7-0.6-1.1-0.9c-1.6-1.3-3-1.4-4.7-0.2c-0.4,0.3-0.9,0.6-1.2,1
			c-0.3,0.4-0.6,0.4-0.9,0c-0.1-0.1-0.2-0.3-0.3-0.4c-1.2-1.4-2.4-1.6-4.1-1c-1,0.4-1.6,1.2-2.2,1.9c-0.3,0.4-0.6,0.4-0.8-0.1
			c0-0.1-0.1-0.2-0.1-0.3c-1.9-3.6-3.8-7.2-5.6-10.9c-0.4-0.8-0.9-1.6-1.7-2.2c-0.7-0.5-1.4-0.5-2.1-0.1c-0.7,0.3-0.9,0.9-0.9,1.6
			c0,0.9,0.1,1.7,0.4,2.5c0.6,1.8,1.3,3.5,1.9,5.2c2.3,6.4,4.8,12.6,6.8,19.1C365.7,352.3,366.3,354.2,366.8,356.1L366.8,356.1z"/>
		<path class="st0" d="M360.4,308c0.3,0.9,0,1.7-0.2,2.5c-0.2,0.9-0.4,1.7-0.7,2.6c-0.2,0.6-0.7,0.8-1.2,0.7
			c-0.5-0.1-0.9-0.6-0.7-1.2c0.3-1.4,0.6-2.7,1-4c0.1-0.4,0.5-0.5,0.6-0.9C359.6,307.8,360,307.9,360.4,308z"/>
		<path class="st0" d="M343.9,317c0.8-0.2,1.5,0,2.3,0.2c0.9,0.2,1.8,0.4,2.7,0.7c0.6,0.2,0.9,0.7,0.8,1.2s-0.6,0.9-1.2,0.7
			c-1.3-0.3-2.6-0.6-3.9-0.9c-0.4-0.1-0.6-0.5-0.9-0.6C343.7,317.9,343.8,317.4,343.9,317z"/>
		<path class="st0" d="M353.4,313.9c-0.1,0.5-0.4,0.7-0.7,0.8c-0.4,0.1-0.8,0-1-0.3c-0.8-1.2-1.6-2.5-2.3-3.8
			c-0.3-0.5-0.1-1,0.4-1.3s1-0.2,1.3,0.2c0.8,1.2,1.6,2.5,2.3,3.8C353.4,313.6,353.4,313.8,353.4,313.9z"/>
		<path class="st0" d="M363.7,315.5c-0.4-0.1-0.6-0.3-0.7-0.7c-0.1-0.4,0-0.8,0.3-1c1.2-0.8,2.4-1.5,3.7-2.3c0.5-0.3,1-0.1,1.3,0.4
			s0.2,1-0.3,1.3c-1.2,0.8-2.4,1.5-3.6,2.2C364.2,315.6,364,315.6,363.7,315.5z"/>
		<path class="st0" d="M348.7,324.7c-0.1,0.4-0.3,0.6-0.6,0.7c-1.1,0.7-2.1,1.3-3.2,2c-0.6,0.4-1.2,0.2-1.5-0.3s-0.2-1.1,0.4-1.5
			c1.1-0.7,2.2-1.4,3.3-2c0.4-0.2,0.8-0.2,1.2,0.1C348.7,324,348.8,324.3,348.7,324.7z"/>
	</g>
</g>
<path class="st1" d="M566.5,456.5H176.3c-4.6,0-8.3-3.7-8.3-8.3V425c0-4.6,3.7-8.3,8.3-8.3h390.2c4.6,0,8.3,3.7,8.3,8.3v23.2
	C574.8,452.7,571.1,456.5,566.5,456.5z"/>
<g>
	<path class="st5" d="M195.5,440.3L195.5,440.3c-0.5,0.6-0.9,1.1-1.6,1.3c-0.6,0.2-1.3,0.4-2,0.4c-0.5,0-0.9-0.1-1.4-0.2
		c-0.5-0.2-0.9-0.3-1.3-0.6c-0.4-0.3-0.6-0.6-0.9-1c-0.2-0.4-0.3-0.9-0.3-1.4s0.1-1.1,0.3-1.5s0.5-0.8,0.9-1
		c0.4-0.3,0.8-0.5,1.3-0.6c0.5-0.2,0.9-0.3,1.5-0.4c0.5-0.1,1-0.2,1.5-0.2s1,0,1.4,0h0.7v-0.3c0-0.7-0.2-1.2-0.7-1.5s-1-0.5-1.8-0.5
		c-0.5,0-1.1,0.1-1.6,0.3c-0.5,0.2-0.9,0.5-1.3,0.8l-1.4-1.4c0.6-0.6,1.3-1.1,2.1-1.3s1.6-0.4,2.5-0.4c0.8,0,1.4,0.1,2,0.2
		c0.5,0.2,0.9,0.4,1.3,0.6c0.3,0.2,0.6,0.5,0.8,0.9c0.2,0.3,0.3,0.7,0.4,1.1c0.1,0.4,0.2,0.7,0.2,1s0,0.6,0,0.9v6.2h-2.4v-1.4H195.5
		L195.5,440.3z M195.4,437h-0.5c-0.4,0-0.8,0-1.3,0.1c-0.5,0-0.9,0.1-1.3,0.2c-0.4,0.1-0.8,0.3-1,0.5c-0.3,0.2-0.4,0.5-0.4,0.9
		c0,0.2,0.1,0.5,0.2,0.6s0.2,0.3,0.5,0.5c0.2,0.2,0.4,0.2,0.6,0.2c0.2,0,0.5,0.1,0.7,0.1c0.9,0,1.6-0.2,2-0.6c0.5-0.5,0.6-1,0.6-1.8
		L195.4,437L195.4,437L195.4,437z"/>
	<path class="st5" d="M205.2,431.1h2.6v1.7h0.1c0.2-0.5,0.6-1,1.2-1.4s1.3-0.6,2.1-0.6c0.7,0,1.3,0.2,1.8,0.4s0.9,0.5,1.3,0.9
		c0.3,0.4,0.5,0.9,0.7,1.3c0.2,0.5,0.2,1,0.2,1.6v6.8h-2.7v-5.5c0-0.3,0-0.6-0.1-1c0-0.4-0.1-0.7-0.2-1c-0.2-0.3-0.3-0.6-0.6-0.8
		c-0.3-0.2-0.6-0.3-1.1-0.3s-0.8,0.1-1.1,0.2s-0.5,0.3-0.8,0.6c-0.2,0.2-0.3,0.5-0.5,0.9c-0.1,0.3-0.2,0.7-0.2,1v5.9h-2.7V431.1
		L205.2,431.1z"/>
	<path class="st5" d="M220.3,437.4c0.1,0.8,0.4,1.4,0.9,1.9s1.2,0.7,2,0.7c0.6,0,1.3-0.2,1.6-0.4c0.5-0.3,0.9-0.6,1.2-1l2,1.5
		c-0.6,0.8-1.3,1.3-2.1,1.6c-0.8,0.3-1.6,0.5-2.4,0.5c-0.8,0-1.6-0.2-2.3-0.4s-1.3-0.6-1.9-1.2c-0.5-0.5-0.9-1.1-1.3-1.8
		c-0.3-0.7-0.5-1.5-0.5-2.3s0.2-1.6,0.5-2.3c0.3-0.7,0.7-1.3,1.3-1.8c0.5-0.5,1.2-0.9,1.9-1.2c0.7-0.2,1.5-0.4,2.3-0.4
		s1.4,0.2,2,0.4c0.6,0.2,1.2,0.6,1.6,1.1c0.5,0.5,0.8,1.1,1,1.8c0.2,0.7,0.4,1.6,0.4,2.5v0.7L220.3,437.4L220.3,437.4L220.3,437.4z
		 M225.7,435.4c0-0.8-0.2-1.4-0.8-1.9c-0.5-0.5-1.2-0.7-2-0.7s-1.5,0.2-2,0.7s-0.8,1.1-0.9,1.9H225.7z"/>
	<path class="st5" d="M229.5,431.1h2.9l2.3,7.5h0.1l2.2-7.5h2.9l2.3,7.5l0,0l2.3-7.5h2.7l-3.7,10.8h-2.7l-2.6-7.4l0,0l-2.3,7.4h-2.7
		L229.5,431.1z"/>
	<path class="st5" d="M251.7,431.1h2.9l2.9,7.5h0.1l2.9-7.5h2.7l-4.2,10.7h-2.9L251.7,431.1z"/>
	<path class="st5" d="M264.4,427.4c0-0.5,0.2-0.8,0.5-1.1c0.3-0.3,0.7-0.5,1.3-0.5c0.5,0,0.9,0.2,1.3,0.5c0.3,0.3,0.5,0.7,0.5,1.2
		s-0.2,0.9-0.5,1.2s-0.8,0.5-1.3,0.5s-0.9-0.2-1.3-0.5C264.6,428.3,264.4,427.9,264.4,427.4z M264.8,431.1h2.7v10.7h-2.7V431.1z"/>
	<path class="st5" d="M276.3,434.1c-0.5-0.7-1.2-1.1-2.1-1.1c-0.4,0-0.7,0.1-1.1,0.2c-0.3,0.2-0.5,0.5-0.5,0.9
		c0,0.3,0.2,0.5,0.5,0.7s0.6,0.3,1.1,0.4s0.9,0.2,1.4,0.3c0.5,0.1,0.9,0.3,1.4,0.5s0.8,0.5,1.1,0.9c0.3,0.4,0.4,0.9,0.4,1.6
		c0,0.6-0.2,1.2-0.4,1.6c-0.3,0.5-0.6,0.8-1.1,1.1c-0.5,0.3-0.9,0.5-1.5,0.6c-0.5,0.2-1.1,0.2-1.6,0.2c-0.9,0-1.6-0.2-2.3-0.4
		c-0.7-0.2-1.3-0.7-1.9-1.3l1.8-1.6c0.3,0.4,0.7,0.7,1.1,0.9c0.4,0.2,0.9,0.4,1.5,0.4c0.2,0,0.4,0,0.6-0.1s0.4-0.2,0.5-0.2
		s0.3-0.2,0.5-0.4c0.1-0.2,0.2-0.3,0.2-0.5c0-0.4-0.2-0.6-0.4-0.9c-0.3-0.2-0.6-0.3-1.1-0.5s-0.9-0.2-1.4-0.3
		c-0.5-0.1-0.9-0.2-1.4-0.5c-0.5-0.2-0.8-0.5-1.1-0.9c-0.3-0.4-0.4-0.9-0.4-1.6c0-0.6,0.2-1.1,0.4-1.6c0.2-0.5,0.5-0.8,0.9-1.1
		s0.9-0.5,1.4-0.6s1-0.2,1.6-0.2c0.7,0,1.4,0.2,2.1,0.4c0.7,0.2,1.3,0.7,1.7,1.3L276.3,434.1z"/>
	<path class="st5" d="M280.2,427.4c0-0.5,0.2-0.8,0.5-1.1c0.3-0.3,0.7-0.5,1.3-0.5c0.5,0,0.9,0.2,1.3,0.5c0.3,0.3,0.5,0.7,0.5,1.2
		s-0.2,0.9-0.5,1.2c-0.3,0.3-0.8,0.5-1.3,0.5s-0.9-0.2-1.3-0.5C280.4,428.3,280.2,427.9,280.2,427.4z M280.6,431.1h2.7v10.7h-2.7
		V431.1z"/>
	<path class="st5" d="M285.8,436.5c0-0.9,0.2-1.6,0.5-2.3c0.3-0.7,0.7-1.3,1.3-1.8s1.2-0.9,1.9-1.2c0.7-0.2,1.5-0.4,2.3-0.4
		s1.6,0.2,2.3,0.4c0.7,0.2,1.3,0.6,1.9,1.2c0.5,0.5,0.9,1.1,1.3,1.8c0.3,0.7,0.5,1.5,0.5,2.3c0,0.9-0.2,1.6-0.5,2.3
		c-0.3,0.7-0.7,1.3-1.3,1.8s-1.2,0.9-1.9,1.2c-0.7,0.2-1.5,0.4-2.3,0.4s-1.6-0.2-2.3-0.4c-0.7-0.2-1.3-0.6-1.9-1.2
		c-0.5-0.5-0.9-1.1-1.3-1.8S285.8,437.3,285.8,436.5z M288.5,436.5c0,0.4,0.1,0.9,0.2,1.3c0.2,0.4,0.4,0.7,0.6,1s0.6,0.5,1,0.7
		s0.9,0.2,1.3,0.2c0.5,0,0.9-0.1,1.3-0.2c0.4-0.2,0.7-0.4,1-0.7c0.2-0.3,0.5-0.6,0.6-1c0.2-0.4,0.2-0.8,0.2-1.3
		c0-0.4-0.1-0.8-0.2-1.2c-0.2-0.4-0.4-0.7-0.6-1s-0.6-0.5-1-0.7s-0.9-0.2-1.3-0.2s-0.9,0.1-1.3,0.2s-0.7,0.4-1,0.7
		c-0.2,0.3-0.5,0.6-0.6,1C288.6,435.6,288.5,436,288.5,436.5z"/>
	<path class="st5" d="M300,431.1h2.6v1.7h0.1c0.2-0.5,0.6-1,1.2-1.4s1.3-0.6,2.1-0.6c0.7,0,1.3,0.2,1.8,0.4c0.5,0.2,0.9,0.5,1.3,0.9
		c0.3,0.4,0.5,0.9,0.7,1.3c0.2,0.5,0.2,1,0.2,1.6v6.8h-2.7v-5.5c0-0.3,0-0.6-0.1-1c0-0.4-0.1-0.7-0.2-1c-0.2-0.3-0.3-0.6-0.6-0.8
		c-0.3-0.2-0.6-0.3-1.1-0.3s-0.8,0.1-1.1,0.2c-0.3,0.2-0.5,0.3-0.8,0.6c-0.2,0.2-0.3,0.5-0.5,0.9c-0.1,0.3-0.2,0.7-0.2,1v5.9H300
		L300,431.1C300.1,431.1,300,431.1,300,431.1z"/>
	<path class="st5" d="M316,433.3V431h2.2v-3.1h2.7v3.1h3v2.3h-3v4.7c0,0.5,0.1,0.9,0.3,1.3c0.2,0.3,0.6,0.5,1.2,0.5
		c0.2,0,0.5,0,0.8-0.1s0.5-0.2,0.7-0.2v2.3c-0.3,0.2-0.6,0.2-1,0.3s-0.8,0.1-1.1,0.1c-0.7,0-1.3-0.1-1.7-0.2
		c-0.4-0.2-0.8-0.4-1.1-0.7c-0.2-0.3-0.5-0.7-0.5-1.2s-0.2-1-0.2-1.6v-4.9L316,433.3L316,433.3z"/>
	<path class="st5" d="M325.4,436.5c0-0.9,0.2-1.6,0.5-2.3c0.3-0.7,0.7-1.3,1.3-1.8s1.2-0.9,1.9-1.2c0.7-0.2,1.5-0.4,2.3-0.4
		s1.6,0.2,2.3,0.4c0.7,0.2,1.3,0.6,1.9,1.2c0.5,0.5,0.9,1.1,1.3,1.8c0.3,0.7,0.5,1.5,0.5,2.3c0,0.9-0.2,1.6-0.5,2.3
		c-0.3,0.7-0.7,1.3-1.3,1.8s-1.2,0.9-1.9,1.2c-0.7,0.2-1.5,0.4-2.3,0.4s-1.6-0.2-2.3-0.4c-0.7-0.2-1.3-0.6-1.9-1.2
		c-0.5-0.5-0.9-1.1-1.3-1.8C325.6,438.1,325.4,437.3,325.4,436.5z M328.1,436.5c0,0.4,0.1,0.9,0.2,1.3c0.2,0.4,0.4,0.7,0.6,1
		s0.6,0.5,1,0.7s0.9,0.2,1.3,0.2c0.5,0,0.9-0.1,1.3-0.2c0.4-0.2,0.7-0.4,1-0.7c0.2-0.3,0.5-0.6,0.6-1c0.2-0.4,0.2-0.8,0.2-1.3
		c0-0.4-0.1-0.8-0.2-1.2s-0.4-0.7-0.6-1s-0.6-0.5-1-0.7s-0.9-0.2-1.3-0.2c-0.5,0-0.9,0.1-1.3,0.2s-0.7,0.4-1,0.7
		c-0.2,0.3-0.5,0.6-0.6,1C328.2,435.6,328.1,436,328.1,436.5z"/>
	<path class="st5" d="M346.2,437.4c0.1,0.8,0.4,1.4,0.9,1.9s1.2,0.7,2,0.7c0.6,0,1.3-0.2,1.6-0.4c0.5-0.3,0.9-0.6,1.2-1l2,1.5
		c-0.6,0.8-1.3,1.3-2.1,1.6c-0.8,0.3-1.6,0.5-2.4,0.5s-1.6-0.2-2.3-0.4c-0.7-0.2-1.3-0.6-1.9-1.2c-0.5-0.5-0.9-1.1-1.3-1.8
		c-0.3-0.7-0.5-1.5-0.5-2.3s0.2-1.6,0.5-2.3c0.3-0.7,0.7-1.3,1.3-1.8s1.2-0.9,1.9-1.2c0.7-0.2,1.5-0.4,2.3-0.4s1.4,0.2,2,0.4
		s1.2,0.6,1.6,1.1c0.5,0.5,0.8,1.1,1,1.8c0.2,0.7,0.4,1.6,0.4,2.5v0.7h-8.1v0.1H346.2z M351.6,435.4c0-0.8-0.2-1.4-0.8-1.9
		c-0.5-0.5-1.2-0.7-2-0.7s-1.5,0.2-2,0.7s-0.8,1.1-0.9,1.9H351.6z"/>
	<path class="st5" d="M360.5,433.3v8.5h-2.7v-8.5h-2.2V431h2.2v-1.5c0-0.8,0.1-1.4,0.2-2s0.3-1.1,0.6-1.6c0.3-0.5,0.7-0.8,1.3-1
		s1.2-0.3,2-0.3c0.3,0,0.6,0,0.9,0s0.5,0.1,0.8,0.2l-0.2,2.3c-0.2-0.1-0.4-0.1-0.5-0.1s-0.4-0.1-0.5-0.1c-0.4,0-0.6,0.1-0.9,0.2
		c-0.2,0.2-0.4,0.3-0.5,0.5c-0.2,0.2-0.2,0.5-0.2,0.7s-0.1,0.5-0.1,0.9v2h4.5v-1.5c0-0.8,0.1-1.4,0.2-2s0.3-1.1,0.6-1.6
		c0.3-0.5,0.7-0.8,1.3-1s1.2-0.3,2-0.3c0.3,0,0.6,0,0.9,0s0.5,0.1,0.9,0.2l-0.2,2.3c-0.2-0.1-0.4-0.1-0.5-0.1
		c-0.2,0-0.4-0.1-0.5-0.1c-0.4,0-0.6,0.1-0.9,0.2c-0.2,0.2-0.4,0.3-0.5,0.5c-0.2,0.2-0.2,0.5-0.2,0.7s-0.1,0.5-0.1,0.9v2h2.5v2.3
		h-2.5v8.5h-2.7v-8.5h-5V433.3z M371.6,427.4c0-0.5,0.2-0.8,0.5-1.1c0.3-0.3,0.7-0.5,1.3-0.5c0.5,0,0.9,0.2,1.3,0.5
		c0.3,0.3,0.5,0.7,0.5,1.2s-0.2,0.9-0.5,1.2c-0.3,0.3-0.8,0.5-1.3,0.5s-0.9-0.2-1.3-0.5C371.7,428.3,371.6,427.9,371.6,427.4z
		 M371.9,431.1h2.7v10.7h-2.7V431.1z"/>
	<path class="st5" d="M384.7,434.3c-0.3-0.3-0.6-0.6-1-0.8c-0.4-0.2-0.7-0.3-1.1-0.3c-0.5,0-0.9,0.1-1.3,0.2s-0.7,0.4-1,0.7
		c-0.2,0.3-0.5,0.6-0.6,1s-0.2,0.8-0.2,1.2c0,0.4,0.1,0.9,0.2,1.3c0.2,0.4,0.4,0.7,0.6,1s0.6,0.5,1,0.7s0.9,0.2,1.3,0.2
		c0.9,0,1.6-0.3,2.1-1l1.8,2c-0.2,0.2-0.5,0.5-0.9,0.7s-0.7,0.3-1.1,0.5s-0.7,0.2-1,0.2s-0.6,0.1-0.9,0.1c-0.8,0-1.6-0.2-2.3-0.4
		c-0.7-0.2-1.3-0.6-1.9-1.2c-0.5-0.5-0.9-1.1-1.3-1.8c-0.3-0.7-0.5-1.5-0.5-2.3c0-0.9,0.2-1.6,0.5-2.3c0.3-0.7,0.7-1.3,1.3-1.8
		s1.2-0.9,1.9-1.2c0.7-0.2,1.5-0.4,2.3-0.4c0.7,0,1.4,0.2,2,0.4s1.3,0.7,1.8,1.3L384.7,434.3z"/>
	<path class="st5" d="M387.9,427.4c0-0.5,0.2-0.8,0.5-1.1c0.3-0.3,0.7-0.5,1.3-0.5c0.5,0,0.9,0.2,1.3,0.5c0.3,0.3,0.5,0.7,0.5,1.2
		s-0.2,0.9-0.5,1.2c-0.3,0.3-0.8,0.5-1.3,0.5s-0.9-0.2-1.3-0.5C388,428.3,387.9,427.9,387.9,427.4z M388.2,431.1h2.7v10.7h-2.7
		V431.1z"/>
	<path class="st5" d="M396.2,437.4c0.1,0.8,0.4,1.4,0.9,1.9s1.2,0.7,2,0.7c0.6,0,1.3-0.2,1.6-0.4c0.5-0.3,0.9-0.6,1.2-1l2,1.5
		c-0.6,0.8-1.3,1.3-2.1,1.6c-0.8,0.3-1.6,0.5-2.4,0.5s-1.6-0.2-2.3-0.4c-0.7-0.2-1.3-0.6-1.9-1.2c-0.5-0.5-0.9-1.1-1.3-1.8
		c-0.3-0.7-0.5-1.5-0.5-2.3s0.2-1.6,0.5-2.3c0.3-0.7,0.7-1.3,1.3-1.8s1.2-0.9,1.9-1.2c0.7-0.2,1.5-0.4,2.3-0.4s1.4,0.2,2,0.4
		c0.6,0.2,1.2,0.6,1.6,1.1c0.5,0.5,0.8,1.1,1,1.8c0.2,0.7,0.4,1.6,0.4,2.5v0.7h-8.1v0.1H396.2z M401.6,435.4c0-0.8-0.2-1.4-0.8-1.9
		c-0.5-0.5-1.2-0.7-2-0.7s-1.5,0.2-2,0.7s-0.8,1.1-0.9,1.9H401.6z"/>
	<path class="st5" d="M406.8,431.1h2.6v1.7h0.1c0.2-0.5,0.6-1,1.2-1.4s1.3-0.6,2.1-0.6c0.7,0,1.3,0.2,1.8,0.4s0.9,0.5,1.3,0.9
		c0.3,0.4,0.5,0.9,0.7,1.3c0.2,0.5,0.2,1,0.2,1.6v6.8h-2.7v-5.5c0-0.3,0-0.6-0.1-1c0-0.4-0.1-0.7-0.2-1s-0.3-0.6-0.6-0.8
		c-0.3-0.2-0.6-0.3-1.1-0.3s-0.8,0.1-1.1,0.2c-0.3,0.2-0.5,0.3-0.8,0.6c-0.2,0.2-0.3,0.5-0.5,0.9c-0.1,0.3-0.2,0.7-0.2,1v5.9h-2.7
		L406.8,431.1C406.9,431.1,406.8,431.1,406.8,431.1z"/>
	<path class="st5" d="M418.5,433.3V431h2.2v-3.1h2.7v3.1h3v2.3h-3v4.7c0,0.5,0.1,0.9,0.3,1.3c0.2,0.3,0.6,0.5,1.2,0.5
		c0.2,0,0.5,0,0.8-0.1s0.5-0.2,0.7-0.2v2.3c-0.3,0.2-0.6,0.2-1,0.3c-0.4,0.1-0.8,0.1-1.1,0.1c-0.7,0-1.3-0.1-1.7-0.2
		c-0.5-0.2-0.8-0.4-1.1-0.7c-0.3-0.3-0.5-0.7-0.5-1.2s-0.2-1-0.2-1.6v-4.9L418.5,433.3L418.5,433.3z"/>
	<path class="st5" d="M432.7,431.1h2.6v1.7h0.1c0.2-0.5,0.6-0.9,1.2-1.3c0.5-0.4,1.3-0.6,2.1-0.6c1.6,0,2.8,0.6,3.4,2
		c0.4-0.7,0.9-1.2,1.5-1.5c0.5-0.3,1.3-0.5,2.1-0.5c0.7,0,1.3,0.2,1.8,0.4c0.5,0.2,0.9,0.5,1.2,1c0.3,0.4,0.5,0.9,0.6,1.5
		c0.2,0.5,0.2,1.2,0.2,1.8v6.4h-2.7v-6.1c0-0.3,0-0.6-0.1-0.9s-0.2-0.5-0.3-0.8s-0.4-0.4-0.6-0.5c-0.2-0.2-0.5-0.2-1-0.2
		c-0.4,0-0.8,0.1-1.1,0.2c-0.3,0.2-0.5,0.4-0.7,0.6s-0.3,0.5-0.4,0.9s-0.2,0.7-0.2,1v5.8h-2.7v-6.4c0-0.7-0.2-1.2-0.4-1.6
		c-0.3-0.4-0.8-0.6-1.4-0.6c-0.5,0-0.8,0.1-1.1,0.2s-0.5,0.3-0.8,0.6c-0.2,0.2-0.3,0.5-0.5,0.9c-0.1,0.3-0.2,0.7-0.2,1v5.9h-2.7
		v-10.9H432.7z"/>
	<path class="st5" d="M459,440.3L459,440.3c-0.5,0.6-0.9,1.1-1.6,1.3c-0.6,0.2-1.3,0.4-2,0.4c-0.5,0-0.9-0.1-1.4-0.2
		c-0.5-0.2-0.9-0.3-1.3-0.6c-0.4-0.3-0.6-0.6-0.9-1c-0.2-0.4-0.3-0.9-0.3-1.4s0.1-1.1,0.3-1.5c0.2-0.4,0.5-0.8,0.9-1
		c0.4-0.3,0.8-0.5,1.3-0.6s0.9-0.3,1.4-0.4s1-0.2,1.5-0.2s1,0,1.4,0h0.7v-0.3c0-0.7-0.2-1.2-0.7-1.5s-1-0.5-1.8-0.5
		c-0.5,0-1.1,0.1-1.6,0.3c-0.5,0.2-0.9,0.5-1.3,0.8l-1.4-1.4c0.6-0.6,1.3-1.1,2.1-1.3c0.8-0.2,1.6-0.4,2.5-0.4c0.8,0,1.4,0.1,2,0.2
		s0.9,0.4,1.3,0.6s0.6,0.5,0.8,0.9c0.2,0.3,0.3,0.7,0.4,1.1s0.2,0.7,0.2,1s0,0.6,0,0.9v6.2h-2.4L459,440.3L459,440.3L459,440.3z
		 M458.8,437h-0.5c-0.4,0-0.8,0-1.3,0.1c-0.5,0-0.9,0.1-1.3,0.2s-0.8,0.3-1,0.5c-0.3,0.2-0.4,0.5-0.4,0.9c0,0.2,0.1,0.5,0.2,0.6
		c0.1,0.2,0.2,0.3,0.5,0.5c0.2,0.2,0.4,0.2,0.6,0.2c0.2,0.1,0.5,0.1,0.7,0.1c0.9,0,1.6-0.2,2-0.6c0.5-0.5,0.6-1,0.6-1.8L458.8,437
		L458.8,437z"/>
	<path class="st5" d="M464.3,431.1h2.6v1.7h0.1c0.2-0.5,0.6-1,1.2-1.4s1.3-0.6,2.1-0.6c0.7,0,1.3,0.2,1.8,0.4
		c0.5,0.2,0.9,0.5,1.3,0.9c0.3,0.4,0.5,0.9,0.7,1.3c0.2,0.5,0.2,1,0.2,1.6v6.8h-2.7v-5.5c0-0.3,0-0.6-0.1-1c0-0.4-0.1-0.7-0.2-1
		s-0.3-0.6-0.6-0.8c-0.2-0.2-0.6-0.3-1.1-0.3s-0.8,0.1-1.1,0.2c-0.3,0.2-0.5,0.3-0.8,0.6c-0.2,0.2-0.3,0.5-0.5,0.9
		c-0.1,0.3-0.2,0.7-0.2,1v5.9h-2.7L464.3,431.1C464.4,431.1,464.3,431.1,464.3,431.1z"/>
	<path class="st5" d="M488.2,431.1v9.8c0,0.9-0.2,1.9-0.4,2.7c-0.2,0.8-0.6,1.5-1.1,2s-1.1,0.9-1.9,1.3c-0.8,0.3-1.6,0.5-2.7,0.5
		c-1,0-2-0.2-2.8-0.4c-0.9-0.2-1.7-0.7-2.5-1.4l1.6-2.2c0.5,0.5,1.1,0.9,1.7,1.2c0.5,0.2,1.3,0.4,2,0.4c0.6,0,1.2-0.1,1.6-0.2
		c0.5-0.2,0.8-0.4,1-0.7c0.2-0.3,0.5-0.7,0.5-1.1c0.1-0.5,0.2-0.9,0.2-1.5v-0.8l0,0c-0.4,0.5-0.9,0.9-1.6,1.2
		c-0.7,0.2-1.3,0.4-2,0.4c-0.8,0-1.6-0.2-2.2-0.5s-1.3-0.7-1.7-1.2c-0.5-0.5-0.9-1.1-1.1-1.7c-0.2-0.7-0.4-1.4-0.4-2.1
		c0-0.8,0.2-1.6,0.4-2.2s0.6-1.3,1.1-1.8s1-0.9,1.6-1.2c0.6-0.3,1.4-0.5,2.2-0.5c0.8,0,1.5,0.2,2.1,0.5s1.2,0.8,1.6,1.4l0,0v-1.6
		h2.6L488.2,431.1L488.2,431.1z M482.5,433.2c-0.5,0-0.9,0.1-1.3,0.2c-0.4,0.2-0.7,0.4-1,0.6s-0.5,0.6-0.6,1
		c-0.2,0.4-0.2,0.9-0.2,1.3c0,0.5,0.1,0.9,0.2,1.3c0.2,0.4,0.4,0.7,0.6,1c0.3,0.3,0.6,0.5,1,0.7s0.8,0.2,1.3,0.2s0.9-0.1,1.3-0.2
		c0.4-0.2,0.7-0.4,1-0.7c0.2-0.3,0.5-0.6,0.6-1c0.2-0.4,0.2-0.8,0.2-1.3c0-0.9-0.3-1.7-0.9-2.3C484.3,433.5,483.5,433.2,482.5,433.2
		z"/>
	<path class="st5" d="M493.4,437.4c0.1,0.8,0.4,1.4,0.9,1.9s1.2,0.7,2,0.7c0.6,0,1.3-0.2,1.6-0.4c0.5-0.3,0.9-0.6,1.2-1l2,1.5
		c-0.6,0.8-1.3,1.3-2.1,1.6c-0.8,0.3-1.6,0.5-2.4,0.5s-1.6-0.2-2.3-0.4c-0.7-0.2-1.3-0.6-1.9-1.2c-0.5-0.5-0.9-1.1-1.3-1.8
		c-0.3-0.7-0.5-1.5-0.5-2.3s0.2-1.6,0.5-2.3c0.3-0.7,0.7-1.3,1.3-1.8s1.2-0.9,1.9-1.2c0.7-0.2,1.5-0.4,2.3-0.4s1.4,0.2,2,0.4
		s1.2,0.6,1.6,1.1c0.5,0.5,0.8,1.1,1,1.8c0.2,0.7,0.4,1.6,0.4,2.5v0.7h-8.1L493.4,437.4L493.4,437.4z M498.9,435.4
		c0-0.8-0.2-1.4-0.8-1.9c-0.5-0.5-1.2-0.7-2-0.7s-1.5,0.2-2,0.7s-0.8,1.1-0.9,1.9H498.9z"/>
	<path class="st5" d="M504,431.1h2.6v1.7h0.1c0.2-0.5,0.6-0.9,1.2-1.3c0.5-0.4,1.3-0.6,2.1-0.6c1.6,0,2.8,0.6,3.4,2
		c0.4-0.7,0.9-1.2,1.5-1.5c0.5-0.3,1.3-0.5,2.1-0.5c0.7,0,1.3,0.2,1.8,0.4c0.5,0.2,0.9,0.5,1.2,1c0.3,0.4,0.5,0.9,0.6,1.5
		c0.2,0.5,0.2,1.2,0.2,1.8v6.4H518v-6.1c0-0.3,0-0.6-0.1-0.9s-0.2-0.5-0.3-0.8s-0.4-0.4-0.6-0.5s-0.5-0.2-1-0.2
		c-0.4,0-0.8,0.1-1.1,0.2c-0.3,0.2-0.5,0.4-0.7,0.6s-0.3,0.5-0.4,0.9c-0.1,0.3-0.2,0.7-0.2,1v5.8h-2.7v-6.4c0-0.7-0.2-1.2-0.4-1.6
		c-0.3-0.4-0.8-0.6-1.4-0.6c-0.5,0-0.8,0.1-1.1,0.2c-0.3,0.2-0.5,0.3-0.8,0.6c-0.2,0.2-0.3,0.5-0.5,0.9c-0.1,0.3-0.2,0.7-0.2,1v5.9
		H504V431.1L504,431.1z"/>
	<path class="st5" d="M525.7,437.4c0.1,0.8,0.4,1.4,0.9,1.9s1.2,0.7,2,0.7c0.6,0,1.3-0.2,1.7-0.4c0.5-0.3,0.9-0.6,1.2-1l2,1.5
		c-0.6,0.8-1.3,1.3-2.1,1.6c-0.8,0.3-1.6,0.5-2.4,0.5c-0.8,0-1.6-0.2-2.3-0.4c-0.7-0.2-1.3-0.6-1.9-1.2c-0.5-0.5-0.9-1.1-1.3-1.8
		c-0.3-0.7-0.5-1.5-0.5-2.3s0.2-1.6,0.5-2.3c0.3-0.7,0.7-1.3,1.3-1.8s1.2-0.9,1.9-1.2c0.7-0.2,1.5-0.4,2.3-0.4s1.4,0.2,2,0.4
		c0.6,0.2,1.2,0.6,1.6,1.1c0.5,0.5,0.8,1.1,1,1.8c0.2,0.7,0.4,1.6,0.4,2.5v0.7h-8.2v0.1H525.7z M531.3,435.4c0-0.8-0.2-1.4-0.8-1.9
		c-0.5-0.5-1.2-0.7-2-0.7s-1.5,0.2-2,0.7s-0.8,1.1-0.9,1.9H531.3z"/>
	<path class="st5" d="M536.5,431.1h2.6v1.7h0.1c0.2-0.5,0.6-1,1.2-1.4s1.3-0.6,2.1-0.6c0.7,0,1.3,0.2,1.8,0.4
		c0.5,0.2,0.9,0.5,1.3,0.9c0.3,0.4,0.5,0.9,0.7,1.3c0.2,0.5,0.2,1,0.2,1.6v6.8h-2.7v-5.5c0-0.3,0-0.6-0.1-1c0-0.4-0.1-0.7-0.2-1
		s-0.3-0.6-0.6-0.8c-0.2-0.2-0.6-0.3-1.1-0.3s-0.8,0.1-1.1,0.2c-0.3,0.2-0.5,0.3-0.8,0.6c-0.2,0.2-0.3,0.5-0.5,0.9
		c-0.1,0.3-0.2,0.7-0.2,1v5.9h-2.7V431.1L536.5,431.1z"/>
	<path class="st5" d="M548,433.3V431h2.2v-3.1h2.7v3.1h3v2.3h-3v4.7c0,0.5,0.1,0.9,0.3,1.3c0.2,0.3,0.6,0.5,1.2,0.5
		c0.2,0,0.5,0,0.8-0.1s0.5-0.2,0.7-0.2v2.3c-0.3,0.2-0.6,0.2-1,0.3c-0.4,0.1-0.8,0.1-1.1,0.1c-0.7,0-1.3-0.1-1.7-0.2
		c-0.5-0.2-0.8-0.4-1.1-0.7c-0.2-0.3-0.5-0.7-0.5-1.2c-0.1-0.5-0.2-1-0.2-1.6v-4.9L548,433.3L548,433.3z"/>
</g>
</svg>
